<svg xmlns="http://www.w3.org/2000/svg" viewBox="0 0 1600 1200" width="1600" height="1200">
<rect width="100%" height="100%" fill="#090b10"/>
<text x="40" y="48" fill="#f4efe4" font-family="ui-sans-serif,system-ui,sans-serif" font-size="22">Second brain · concept clusters</text>
<text x="40" y="74" fill="#9a9386" font-family="ui-sans-serif,system-ui,sans-serif" font-size="13">gold wiki · teal maps · blue hunt/sources · green people · coral ship</text>
<circle cx="843.7" cy="794.7" r="88.9" fill="rgba(198,163,90,0.04)" stroke="rgba(198,163,90,0.14)" stroke-width="1"/>
<text x="860.9" y="902.4" fill="#c4bba8" font-family="ui-sans-serif,system-ui,sans-serif" font-size="13" letter-spacing="0.12em" text-anchor="middle">HUNT / SHIP</text>
<circle cx="776.7" cy="476.3" r="87.7" fill="rgba(198,163,90,0.04)" stroke="rgba(198,163,90,0.14)" stroke-width="1"/>
<text x="746.3" y="372.4" fill="#c4bba8" font-family="ui-sans-serif,system-ui,sans-serif" font-size="13" letter-spacing="0.12em" text-anchor="middle">DOOR</text>
<circle cx="773.9" cy="702.1" r="47.5" fill="rgba(198,163,90,0.04)" stroke="rgba(198,163,90,0.14)" stroke-width="1"/>
<text x="731.2" y="757.7" fill="#c4bba8" font-family="ui-sans-serif,system-ui,sans-serif" font-size="13" letter-spacing="0.12em" text-anchor="middle">MEMORY</text>
<circle cx="653.1" cy="621.0" r="71.6" fill="rgba(198,163,90,0.04)" stroke="rgba(198,163,90,0.14)" stroke-width="1"/>
<text x="553.9" y="613.2" fill="#c4bba8" font-family="ui-sans-serif,system-ui,sans-serif" font-size="13" letter-spacing="0.12em" text-anchor="middle">COMPILE</text>
<circle cx="938.7" cy="540.9" r="57.0" fill="rgba(198,163,90,0.04)" stroke="rgba(198,163,90,0.14)" stroke-width="1"/>
<text x="1005.3" y="493.0" fill="#c4bba8" font-family="ui-sans-serif,system-ui,sans-serif" font-size="13" letter-spacing="0.12em" text-anchor="middle">VERIFICATION</text>
<circle cx="944.3" cy="674.9" r="55.3" fill="rgba(198,163,90,0.04)" stroke="rgba(198,163,90,0.14)" stroke-width="1"/>
<text x="1023.7" y="697.8" fill="#c4bba8" font-family="ui-sans-serif,system-ui,sans-serif" font-size="13" letter-spacing="0.12em" text-anchor="middle">HARNESS</text>
<circle cx="809.1" cy="636.6" r="20.0" fill="rgba(198,163,90,0.04)" stroke="rgba(198,163,90,0.14)" stroke-width="1"/>
<text x="875.1" y="628.6" fill="#c4bba8" font-family="ui-sans-serif,system-ui,sans-serif" font-size="13" letter-spacing="0.12em" text-anchor="middle">SYNTHESIS</text>
<path d="M 861.6 792.6 Q 864.0 821.9 893.2 825.8" fill="none" stroke="#c4bba8" stroke-width="2.0" stroke-opacity="0.88"/>
<path d="M 861.6 792.6 Q 839.8 822.5 803.8 813.8" fill="none" stroke="#c4bba8" stroke-width="2.0" stroke-opacity="0.88"/>
<path d="M 861.6 792.6 Q 879.1 779.2 891.0 797.6" fill="none" stroke="#c4bba8" stroke-width="2.0" stroke-opacity="0.88"/>
<path d="M 790.4 712.9 Q 766.3 717.2 761.0 693.2" fill="none" stroke="#c4bba8" stroke-width="2.0" stroke-opacity="0.88"/>
<path d="M 835.7 828.5 Q 846.3 810.3 863.0 823.2" fill="none" stroke="#c4bba8" stroke-width="2.0" stroke-opacity="0.88"/>
<path d="M 835.7 828.5 Q 831.6 851.7 808.5 847.6" fill="none" stroke="#c4bba8" stroke-width="2.0" stroke-opacity="0.88"/>
<path d="M 835.7 828.5 Q 865.6 826.1 874.8 854.7" fill="none" stroke="#c4bba8" stroke-width="2.0" stroke-opacity="0.88"/>
<path d="M 842.2 856.2 Q 857.4 825.8 833.6 801.6" fill="none" stroke="#c4bba8" stroke-width="2.0" stroke-opacity="0.88"/>
<path d="M 749.4 529.5 Q 770.8 522.2 762.5 501.2" fill="none" stroke="#c4bba8" stroke-width="2.0" stroke-opacity="0.88"/>
<path d="M 761.0 693.2 Q 774.4 710.8 755.8 722.8" fill="none" stroke="#c4bba8" stroke-width="2.0" stroke-opacity="0.88"/>
<path d="M 761.0 693.2 Q 767.4 671.7 788.5 679.4" fill="none" stroke="#c4bba8" stroke-width="2.0" stroke-opacity="0.88"/>
<path d="M 784.4 542.8 Q 803.3 530.3 790.0 512.0" fill="none" stroke="#c4bba8" stroke-width="2.0" stroke-opacity="0.88"/>
<path d="M 784.4 542.8 Q 792.4 519.9 815.6 527.1" fill="none" stroke="#c4bba8" stroke-width="2.0" stroke-opacity="0.88"/>
<path d="M 815.6 527.1 Q 807.6 550.1 784.4 542.8" fill="none" stroke="#c4bba8" stroke-width="2.0" stroke-opacity="0.88"/>
<path d="M 815.6 527.1 Q 811.0 505.6 790.0 512.0" fill="none" stroke="#c4bba8" stroke-width="2.0" stroke-opacity="0.88"/>
<path d="M 967.0 547.8 Q 948.8 559.3 939.3 540.0" fill="none" stroke="#c4bba8" stroke-width="2.0" stroke-opacity="0.88"/>
<path d="M 967.0 547.8 Q 935.2 541.1 932.4 508.7" fill="none" stroke="#c4bba8" stroke-width="2.0" stroke-opacity="0.88"/>
<path d="M 967.0 547.8 Q 933.6 539.2 914.3 567.8" fill="none" stroke="#c4bba8" stroke-width="2.0" stroke-opacity="0.88"/>
<path d="M 944.9 675.7 Q 959.7 691.1 942.6 703.8" fill="none" stroke="#c4bba8" stroke-width="2.0" stroke-opacity="0.88"/>
<path d="M 944.9 675.7 Q 925.5 663.7 914.1 683.5" fill="none" stroke="#c4bba8" stroke-width="2.0" stroke-opacity="0.88"/>
<path d="M 944.9 675.7 Q 966.0 671.8 959.8 651.3" fill="none" stroke="#c4bba8" stroke-width="2.0" stroke-opacity="0.88"/>
<path d="M 944.9 675.7 Q 947.5 653.8 925.4 653.0" fill="none" stroke="#c4bba8" stroke-width="2.0" stroke-opacity="0.88"/>
<path d="M 788.5 679.4 Q 787.8 712.9 755.8 722.8" fill="none" stroke="#c4bba8" stroke-width="2.0" stroke-opacity="0.88"/>
<path d="M 788.5 679.4 Q 782.1 700.9 761.0 693.2" fill="none" stroke="#c4bba8" stroke-width="2.0" stroke-opacity="0.88"/>
<path d="M 833.6 801.6 Q 816.4 793.6 828.9 779.2" fill="none" stroke="#c4bba8" stroke-width="2.0" stroke-opacity="0.88"/>
<path d="M 833.6 801.6 Q 818.4 832.0 842.2 856.2" fill="none" stroke="#c4bba8" stroke-width="2.0" stroke-opacity="0.88"/>
<path d="M 833.6 801.6 Q 850.4 813.9 835.7 828.5" fill="none" stroke="#c4bba8" stroke-width="2.0" stroke-opacity="0.88"/>
<path d="M 833.6 801.6 Q 852.6 812.4 861.6 792.6" fill="none" stroke="#c4bba8" stroke-width="2.0" stroke-opacity="0.88"/>
<path d="M 678.8 619.1 Q 657.1 620.8 660.6 642.3" fill="none" stroke="#c4bba8" stroke-width="2.0" stroke-opacity="0.88"/>
<path d="M 678.8 619.1 Q 672.5 642.8 695.8 650.1" fill="none" stroke="#c4bba8" stroke-width="2.0" stroke-opacity="0.88"/>
<path d="M 678.8 619.1 Q 663.9 598.8 642.4 612.2" fill="none" stroke="#c4bba8" stroke-width="2.0" stroke-opacity="0.88"/>
<path d="M 678.8 619.1 Q 683.3 595.5 659.7 590.5" fill="none" stroke="#c4bba8" stroke-width="2.0" stroke-opacity="0.88"/>
<path d="M 678.8 619.1 Q 645.9 608.0 624.3 635.1" fill="none" stroke="#c4bba8" stroke-width="2.0" stroke-opacity="0.88"/>
<path d="M 660.6 642.3 Q 640.9 616.7 659.7 590.5" fill="none" stroke="#c4bba8" stroke-width="2.0" stroke-opacity="0.88"/>
<path d="M 660.6 642.3 Q 682.4 640.7 678.8 619.1" fill="none" stroke="#c4bba8" stroke-width="2.0" stroke-opacity="0.88"/>
<path d="M 660.6 642.3 Q 681.9 629.6 695.8 650.1" fill="none" stroke="#c4bba8" stroke-width="2.0" stroke-opacity="0.88"/>
<path d="M 914.1 683.5 Q 918.6 707.4 942.6 703.8" fill="none" stroke="#c4bba8" stroke-width="2.0" stroke-opacity="0.88"/>
<path d="M 914.1 683.5 Q 933.6 695.6 944.9 675.7" fill="none" stroke="#c4bba8" stroke-width="2.0" stroke-opacity="0.88"/>
<path d="M 914.1 683.5 Q 925.5 651.2 959.8 651.3" fill="none" stroke="#c4bba8" stroke-width="2.0" stroke-opacity="0.88"/>
<path d="M 907.7 533.7 Q 928.4 504.4 963.2 513.1" fill="none" stroke="#c4bba8" stroke-width="2.0" stroke-opacity="0.88"/>
<path d="M 907.7 533.7 Q 927.6 547.5 914.3 567.8" fill="none" stroke="#c4bba8" stroke-width="2.0" stroke-opacity="0.88"/>
<path d="M 959.8 651.3 Q 983.8 657.6 978.9 682.0" fill="none" stroke="#c4bba8" stroke-width="2.0" stroke-opacity="0.88"/>
<path d="M 959.8 651.3 Q 948.4 683.6 914.1 683.5" fill="none" stroke="#c4bba8" stroke-width="2.0" stroke-opacity="0.88"/>
<path d="M 959.8 651.3 Q 938.7 655.2 944.9 675.7" fill="none" stroke="#c4bba8" stroke-width="2.0" stroke-opacity="0.88"/>
<path d="M 695.8 650.1 Q 674.5 662.9 660.6 642.3" fill="none" stroke="#c4bba8" stroke-width="2.0" stroke-opacity="0.88"/>
<path d="M 695.8 650.1 Q 702.2 626.5 678.8 619.1" fill="none" stroke="#c4bba8" stroke-width="2.0" stroke-opacity="0.88"/>
<path d="M 914.3 567.8 Q 927.2 587.7 947.2 574.9" fill="none" stroke="#c4bba8" stroke-width="2.0" stroke-opacity="0.88"/>
<path d="M 914.3 567.8 Q 947.7 576.4 967.0 547.8" fill="none" stroke="#c4bba8" stroke-width="2.0" stroke-opacity="0.88"/>
<path d="M 914.3 567.8 Q 894.5 554.0 907.7 533.7" fill="none" stroke="#c4bba8" stroke-width="2.0" stroke-opacity="0.88"/>
<path d="M 809.1 636.6 Q 734.7 628.5 678.8 619.1" fill="none" stroke="#9a9080" stroke-width="1.45" stroke-opacity="0.88"/>
<path d="M 809.1 636.6 Q 793.5 666.1 788.5 679.4" fill="none" stroke="#9a9080" stroke-width="1.45" stroke-opacity="0.88"/>
<path d="M 809.1 636.6 Q 872.5 656.9 914.1 683.5" fill="none" stroke="#9a9080" stroke-width="1.45" stroke-opacity="0.88"/>
<path d="M 809.1 636.6 Q 870.5 592.5 914.3 567.8" fill="none" stroke="#9a9080" stroke-width="1.45" stroke-opacity="0.88"/>
<path d="M 809.1 636.6 Q 825.0 716.6 833.6 801.6" fill="none" stroke="#9a9080" stroke-width="1.45" stroke-opacity="0.88"/>
<path d="M 803.8 813.8 Q 830.9 807.1 828.9 779.2" fill="none" stroke="#c4bba8" stroke-width="2.0" stroke-opacity="0.88"/>
<path d="M 803.8 813.8 Q 812.7 836.5 835.7 828.5" fill="none" stroke="#c4bba8" stroke-width="2.0" stroke-opacity="0.88"/>
<path d="M 893.2 825.8 Q 865.4 847.2 835.7 828.5" fill="none" stroke="#c4bba8" stroke-width="2.0" stroke-opacity="0.88"/>
<path d="M 893.2 825.8 Q 908.0 810.5 891.0 797.6" fill="none" stroke="#c4bba8" stroke-width="2.0" stroke-opacity="0.88"/>
<path d="M 891.0 797.6 Q 876.2 813.0 893.2 825.8" fill="none" stroke="#c4bba8" stroke-width="2.0" stroke-opacity="0.88"/>
<path d="M 891.0 797.6 Q 860.9 779.6 833.6 801.6" fill="none" stroke="#c4bba8" stroke-width="2.0" stroke-opacity="0.88"/>
<path d="M 925.4 653.0 Q 935.3 674.0 914.1 683.5" fill="none" stroke="#c4bba8" stroke-width="2.0" stroke-opacity="0.88"/>
<path d="M 925.4 653.0 Q 922.9 674.9 944.9 675.7" fill="none" stroke="#c4bba8" stroke-width="2.0" stroke-opacity="0.88"/>
<path d="M 925.4 653.0 Q 915.6 684.7 942.6 703.8" fill="none" stroke="#c4bba8" stroke-width="2.0" stroke-opacity="0.88"/>
<path d="M 932.4 508.7 Q 964.1 515.5 967.0 547.8" fill="none" stroke="#c4bba8" stroke-width="2.0" stroke-opacity="0.88"/>
<path d="M 932.4 508.7 Q 952.0 520.8 939.3 540.0" fill="none" stroke="#c4bba8" stroke-width="2.0" stroke-opacity="0.88"/>
<path d="M 642.4 612.2 Q 657.4 632.5 678.8 619.1" fill="none" stroke="#c4bba8" stroke-width="2.0" stroke-opacity="0.88"/>
<path d="M 642.4 612.2 Q 638.7 591.4 659.7 590.5" fill="none" stroke="#c4bba8" stroke-width="2.0" stroke-opacity="0.88"/>
<path d="M 642.4 612.2 Q 646.0 633.6 624.3 635.1" fill="none" stroke="#c4bba8" stroke-width="2.0" stroke-opacity="0.88"/>
<path d="M 624.3 635.1 Q 657.2 646.3 678.8 619.1" fill="none" stroke="#c4bba8" stroke-width="2.0" stroke-opacity="0.88"/>
<path d="M 624.3 635.1 Q 620.7 613.7 642.4 612.2" fill="none" stroke="#c4bba8" stroke-width="2.0" stroke-opacity="0.88"/>
<path d="M 939.3 540.0 Q 957.5 528.5 967.0 547.8" fill="none" stroke="#c4bba8" stroke-width="2.0" stroke-opacity="0.88"/>
<path d="M 939.3 540.0 Q 919.8 527.9 932.4 508.7" fill="none" stroke="#c4bba8" stroke-width="2.0" stroke-opacity="0.88"/>
<path d="M 762.5 501.2 Q 741.1 508.5 749.4 529.5" fill="none" stroke="#c4bba8" stroke-width="2.0" stroke-opacity="0.88"/>
<path d="M 963.2 513.1 Q 942.5 542.4 907.7 533.7" fill="none" stroke="#c4bba8" stroke-width="2.0" stroke-opacity="0.88"/>
<path d="M 659.7 590.5 Q 655.3 614.2 678.8 619.1" fill="none" stroke="#c4bba8" stroke-width="2.0" stroke-opacity="0.88"/>
<path d="M 659.7 590.5 Q 679.4 616.1 660.6 642.3" fill="none" stroke="#c4bba8" stroke-width="2.0" stroke-opacity="0.88"/>
<path d="M 659.7 590.5 Q 663.5 611.2 642.4 612.2" fill="none" stroke="#c4bba8" stroke-width="2.0" stroke-opacity="0.88"/>
<path d="M 978.9 682.0 Q 954.9 675.7 959.8 651.3" fill="none" stroke="#c4bba8" stroke-width="2.0" stroke-opacity="0.88"/>
<path d="M 828.9 779.2 Q 846.1 787.3 833.6 801.6" fill="none" stroke="#c4bba8" stroke-width="2.0" stroke-opacity="0.88"/>
<path d="M 790.0 512.0 Q 771.1 524.5 784.4 542.8" fill="none" stroke="#c4bba8" stroke-width="2.0" stroke-opacity="0.88"/>
<path d="M 790.0 512.0 Q 794.6 533.5 815.6 527.1" fill="none" stroke="#c4bba8" stroke-width="2.0" stroke-opacity="0.88"/>
<path d="M 942.6 703.8 Q 938.2 679.9 914.1 683.5" fill="none" stroke="#c4bba8" stroke-width="2.0" stroke-opacity="0.88"/>
<path d="M 942.6 703.8 Q 927.9 688.4 944.9 675.7" fill="none" stroke="#c4bba8" stroke-width="2.0" stroke-opacity="0.88"/>
<path d="M 942.6 703.8 Q 952.5 672.2 925.4 653.0" fill="none" stroke="#c4bba8" stroke-width="2.0" stroke-opacity="0.88"/>
<path d="M 755.8 722.8 Q 756.5 689.3 788.5 679.4" fill="none" stroke="#c4bba8" stroke-width="2.0" stroke-opacity="0.88"/>
<path d="M 755.8 722.8 Q 742.5 705.2 761.0 693.2" fill="none" stroke="#c4bba8" stroke-width="2.0" stroke-opacity="0.88"/>
<path d="M 947.2 574.9 Q 934.3 555.0 914.3 567.8" fill="none" stroke="#c4bba8" stroke-width="2.0" stroke-opacity="0.88"/>
<circle cx="861.6" cy="792.6" r="6" fill="#6f9e92"/>
<circle cx="762.0" cy="410.2" r="6" fill="#8b8478"/>
<circle cx="796.7" cy="415.1" r="8" fill="#c6a35a"/>
<circle cx="790.4" cy="712.9" r="6" fill="#8b8478"/>
<circle cx="835.7" cy="828.5" r="6" fill="#c48472"/>
<circle cx="842.2" cy="856.2" r="6" fill="#6f87a8"/>
<circle cx="839.3" cy="727.8" r="6" fill="#c48472"/>
<circle cx="800.5" cy="785.4" r="6" fill="#c48472"/>
<circle cx="783.8" cy="761.7" r="6" fill="#c48472"/>
<circle cx="863.0" cy="823.2" r="6" fill="#c48472"/>
<circle cx="852.0" cy="759.4" r="6" fill="#c48472"/>
<circle cx="884.4" cy="764.5" r="6" fill="#c48472"/>
<circle cx="808.5" cy="847.6" r="6" fill="#c48472"/>
<circle cx="873.0" cy="732.3" r="6" fill="#c48472"/>
<circle cx="817.5" cy="752.5" r="6" fill="#c48472"/>
<circle cx="874.8" cy="854.7" r="6" fill="#c48472"/>
<circle cx="749.4" cy="529.5" r="6" fill="#c6a35a"/>
<circle cx="761.0" cy="693.2" r="6" fill="#c6a35a"/>
<circle cx="784.4" cy="542.8" r="6" fill="#c6a35a"/>
<circle cx="610.4" cy="597.6" r="6" fill="#c6a35a"/>
<circle cx="815.6" cy="527.1" r="6" fill="#c6a35a"/>
<circle cx="967.0" cy="547.8" r="6" fill="#c6a35a"/>
<circle cx="754.6" cy="468.7" r="6" fill="#c6a35a"/>
<circle cx="944.9" cy="675.7" r="6" fill="#c6a35a"/>
<circle cx="788.5" cy="679.4" r="6" fill="#c6a35a"/>
<circle cx="833.6" cy="801.6" r="6" fill="#c6a35a"/>
<circle cx="678.8" cy="619.1" r="6" fill="#c6a35a"/>
<circle cx="660.6" cy="642.3" r="6" fill="#c6a35a"/>
<circle cx="774.8" cy="443.4" r="6" fill="#c6a35a"/>
<circle cx="914.1" cy="683.5" r="6" fill="#c6a35a"/>
<circle cx="907.7" cy="533.7" r="6" fill="#c6a35a"/>
<circle cx="959.8" cy="651.3" r="6" fill="#c6a35a"/>
<circle cx="695.8" cy="650.1" r="6" fill="#c6a35a"/>
<circle cx="914.3" cy="567.8" r="6" fill="#c6a35a"/>
<circle cx="809.1" cy="636.6" r="10" fill="#c6a35a"/>
<circle cx="785.5" cy="474.5" r="6" fill="#c6a35a"/>
<circle cx="807.3" cy="447.4" r="6" fill="#c6a35a"/>
<circle cx="803.8" cy="813.8" r="6" fill="#6f9e92"/>
<circle cx="893.2" cy="825.8" r="6" fill="#6f9e92"/>
<circle cx="891.0" cy="797.6" r="6" fill="#6f9e92"/>
<circle cx="925.4" cy="653.0" r="6" fill="#7d9a6e"/>
<circle cx="932.4" cy="508.7" r="6" fill="#7d9a6e"/>
<circle cx="642.4" cy="612.2" r="6" fill="#7d9a6e"/>
<circle cx="624.3" cy="635.1" r="6" fill="#6f87a8"/>
<circle cx="836.2" cy="463.9" r="6" fill="#6f87a8"/>
<circle cx="741.3" cy="436.9" r="6" fill="#6f87a8"/>
<circle cx="939.3" cy="540.0" r="6" fill="#6f87a8"/>
<circle cx="762.5" cy="501.2" r="6" fill="#6f87a8"/>
<circle cx="963.2" cy="513.1" r="6" fill="#6f87a8"/>
<circle cx="813.0" cy="488.0" r="6" fill="#6f87a8"/>
<circle cx="659.7" cy="590.5" r="6" fill="#6f87a8"/>
<circle cx="730.9" cy="496.9" r="6" fill="#6f87a8"/>
<circle cx="978.9" cy="682.0" r="6" fill="#6f87a8"/>
<circle cx="828.9" cy="779.2" r="6" fill="#6f87a8"/>
<circle cx="723.4" cy="463.7" r="6" fill="#6f87a8"/>
<circle cx="790.0" cy="512.0" r="6" fill="#6f87a8"/>
<circle cx="942.6" cy="703.8" r="6" fill="#6f87a8"/>
<circle cx="755.8" cy="722.8" r="6" fill="#6f87a8"/>
<circle cx="947.2" cy="574.9" r="6" fill="#6f87a8"/>
</svg>