<svg xmlns="http://www.w3.org/2000/svg" viewBox="0 0 1600 1200" width="1600" height="1200">
<rect width="100%" height="100%" fill="#090b10"/>
<text x="40" y="48" fill="#f4efe4" font-family="ui-sans-serif,system-ui,sans-serif" font-size="22">Second brain · concept clusters</text>
<text x="40" y="74" fill="#9a9386" font-family="ui-sans-serif,system-ui,sans-serif" font-size="13">gold wiki · teal maps · blue hunt/sources · green people · coral ship</text>
<circle cx="824.2" cy="760.4" r="93.9" fill="rgba(198,163,90,0.04)" stroke="rgba(198,163,90,0.14)" stroke-width="1"/>
<text x="831.4" y="874.2" fill="#c4bba8" font-family="ui-sans-serif,system-ui,sans-serif" font-size="13" letter-spacing="0.12em" text-anchor="middle">HUNT / SHIP</text>
<circle cx="788.6" cy="519.1" r="86.9" fill="rgba(198,163,90,0.04)" stroke="rgba(198,163,90,0.14)" stroke-width="1"/>
<text x="761.3" y="415.3" fill="#c4bba8" font-family="ui-sans-serif,system-ui,sans-serif" font-size="13" letter-spacing="0.12em" text-anchor="middle">DOOR</text>
<circle cx="794.5" cy="671.5" r="51.6" fill="rgba(198,163,90,0.04)" stroke="rgba(198,163,90,0.14)" stroke-width="1"/>
<text x="753.3" y="732.9" fill="#c4bba8" font-family="ui-sans-serif,system-ui,sans-serif" font-size="13" letter-spacing="0.12em" text-anchor="middle">MEMORY</text>
<circle cx="685.9" cy="634.2" r="68.1" fill="rgba(198,163,90,0.04)" stroke="rgba(198,163,90,0.14)" stroke-width="1"/>
<text x="589.8" y="634.0" fill="#c4bba8" font-family="ui-sans-serif,system-ui,sans-serif" font-size="13" letter-spacing="0.12em" text-anchor="middle">COMPILE</text>
<circle cx="912.5" cy="568.6" r="55.9" fill="rgba(198,163,90,0.04)" stroke="rgba(198,163,90,0.14)" stroke-width="1"/>
<text x="981.6" y="525.6" fill="#c4bba8" font-family="ui-sans-serif,system-ui,sans-serif" font-size="13" letter-spacing="0.12em" text-anchor="middle">VERIFICATION</text>
<circle cx="910.4" cy="665.8" r="59.4" fill="rgba(198,163,90,0.04)" stroke="rgba(198,163,90,0.14)" stroke-width="1"/>
<text x="993.2" y="691.1" fill="#c4bba8" font-family="ui-sans-serif,system-ui,sans-serif" font-size="13" letter-spacing="0.12em" text-anchor="middle">HARNESS</text>
<circle cx="801.6" cy="621.4" r="20.0" fill="rgba(198,163,90,0.04)" stroke="rgba(198,163,90,0.14)" stroke-width="1"/>
<text x="867.6" y="613.4" fill="#c4bba8" font-family="ui-sans-serif,system-ui,sans-serif" font-size="13" letter-spacing="0.12em" text-anchor="middle">SYNTHESIS</text>
<path d="M 853.6 765.2 Q 840.5 785.6 860.5 799.3" fill="none" stroke="#c4bba8" stroke-width="2.0" stroke-opacity="0.88"/>
<path d="M 853.6 765.2 Q 824.2 746.4 796.6 767.6" fill="none" stroke="#c4bba8" stroke-width="2.0" stroke-opacity="0.88"/>
<path d="M 853.6 765.2 Q 873.8 755.9 881.6 776.7" fill="none" stroke="#c4bba8" stroke-width="2.0" stroke-opacity="0.88"/>
<path d="M 777.1 691.1 Q 790.7 659.8 824.7 662.4" fill="none" stroke="#c4bba8" stroke-width="2.0" stroke-opacity="0.88"/>
<path d="M 805.9 797.3 Q 803.7 773.5 827.6 770.9" fill="none" stroke="#c4bba8" stroke-width="2.0" stroke-opacity="0.88"/>
<path d="M 805.9 797.3 Q 790.8 813.6 775.7 797.4" fill="none" stroke="#c4bba8" stroke-width="2.0" stroke-opacity="0.88"/>
<path d="M 805.9 797.3 Q 821.9 810.9 833.2 793.1" fill="none" stroke="#c4bba8" stroke-width="2.0" stroke-opacity="0.88"/>
<path d="M 830.6 820.8 Q 847.0 781.8 819.7 749.5" fill="none" stroke="#c4bba8" stroke-width="2.0" stroke-opacity="0.88"/>
<path d="M 761.4 563.4 Q 761.3 539.7 785.1 539.4" fill="none" stroke="#c4bba8" stroke-width="2.0" stroke-opacity="0.88"/>
<path d="M 824.7 662.4 Q 799.2 680.6 774.9 660.8" fill="none" stroke="#c4bba8" stroke-width="2.0" stroke-opacity="0.88"/>
<path d="M 824.7 662.4 Q 818.7 681.5 801.1 671.8" fill="none" stroke="#c4bba8" stroke-width="2.0" stroke-opacity="0.88"/>
<path d="M 793.2 573.4 Q 789.9 550.9 812.5 548.4" fill="none" stroke="#c4bba8" stroke-width="2.0" stroke-opacity="0.88"/>
<path d="M 793.2 573.4 Q 810.1 557.5 825.7 574.8" fill="none" stroke="#c4bba8" stroke-width="2.0" stroke-opacity="0.88"/>
<path d="M 825.7 574.8 Q 808.8 590.6 793.2 573.4" fill="none" stroke="#c4bba8" stroke-width="2.0" stroke-opacity="0.88"/>
<path d="M 825.7 574.8 Q 804.7 568.8 812.5 548.4" fill="none" stroke="#c4bba8" stroke-width="2.0" stroke-opacity="0.88"/>
<path d="M 912.1 569.1 Q 899.4 585.0 917.3 594.7" fill="none" stroke="#c4bba8" stroke-width="2.0" stroke-opacity="0.88"/>
<path d="M 912.1 569.1 Q 926.4 551.4 908.1 538.0" fill="none" stroke="#c4bba8" stroke-width="2.0" stroke-opacity="0.88"/>
<path d="M 912.1 569.1 Q 888.1 566.5 884.7 590.5" fill="none" stroke="#c4bba8" stroke-width="2.0" stroke-opacity="0.88"/>
<path d="M 905.2 671.5 Q 916.8 651.3 896.5 640.0" fill="none" stroke="#c4bba8" stroke-width="2.0" stroke-opacity="0.88"/>
<path d="M 905.2 671.5 Q 886.7 682.6 877.6 663.0" fill="none" stroke="#c4bba8" stroke-width="2.0" stroke-opacity="0.88"/>
<path d="M 905.2 671.5 Q 918.1 688.4 933.4 673.6" fill="none" stroke="#c4bba8" stroke-width="2.0" stroke-opacity="0.88"/>
<path d="M 905.2 671.5 Q 929.4 668.0 926.9 643.7" fill="none" stroke="#c4bba8" stroke-width="2.0" stroke-opacity="0.88"/>
<path d="M 801.1 671.8 Q 781.8 681.0 774.9 660.8" fill="none" stroke="#c4bba8" stroke-width="2.0" stroke-opacity="0.88"/>
<path d="M 801.1 671.8 Q 807.2 652.7 824.7 662.4" fill="none" stroke="#c4bba8" stroke-width="2.0" stroke-opacity="0.88"/>
<path d="M 819.7 749.5 Q 800.7 740.4 812.2 722.7" fill="none" stroke="#c4bba8" stroke-width="2.0" stroke-opacity="0.88"/>
<path d="M 819.7 749.5 Q 803.3 788.5 830.6 820.8" fill="none" stroke="#c4bba8" stroke-width="2.0" stroke-opacity="0.88"/>
<path d="M 819.7 749.5 Q 794.6 768.1 805.9 797.3" fill="none" stroke="#c4bba8" stroke-width="2.0" stroke-opacity="0.88"/>
<path d="M 819.7 749.5 Q 829.4 773.0 853.6 765.2" fill="none" stroke="#c4bba8" stroke-width="2.0" stroke-opacity="0.88"/>
<path d="M 694.9 646.0 Q 717.7 645.9 716.8 623.2" fill="none" stroke="#c4bba8" stroke-width="2.0" stroke-opacity="0.88"/>
<path d="M 694.9 646.0 Q 704.3 667.0 725.1 657.1" fill="none" stroke="#c4bba8" stroke-width="2.0" stroke-opacity="0.88"/>
<path d="M 694.9 646.0 Q 683.5 624.1 661.1 634.5" fill="none" stroke="#c4bba8" stroke-width="2.0" stroke-opacity="0.88"/>
<path d="M 694.9 646.0 Q 673.9 634.0 685.2 612.5" fill="none" stroke="#c4bba8" stroke-width="2.0" stroke-opacity="0.88"/>
<path d="M 694.9 646.0 Q 690.5 669.3 667.1 665.0" fill="none" stroke="#c4bba8" stroke-width="2.0" stroke-opacity="0.88"/>
<path d="M 716.8 623.2 Q 706.3 602.1 685.2 612.5" fill="none" stroke="#c4bba8" stroke-width="2.0" stroke-opacity="0.88"/>
<path d="M 716.8 623.2 Q 694.0 623.3 694.9 646.0" fill="none" stroke="#c4bba8" stroke-width="2.0" stroke-opacity="0.88"/>
<path d="M 716.8 623.2 Q 737.4 636.1 725.1 657.1" fill="none" stroke="#c4bba8" stroke-width="2.0" stroke-opacity="0.88"/>
<path d="M 877.6 663.0 Q 899.6 661.7 896.5 640.0" fill="none" stroke="#c4bba8" stroke-width="2.0" stroke-opacity="0.88"/>
<path d="M 877.6 663.0 Q 896.1 651.9 905.2 671.5" fill="none" stroke="#c4bba8" stroke-width="2.0" stroke-opacity="0.88"/>
<path d="M 877.6 663.0 Q 901.8 687.9 933.4 673.6" fill="none" stroke="#c4bba8" stroke-width="2.0" stroke-opacity="0.88"/>
<path d="M 881.2 558.0 Q 913.3 572.8 938.5 547.9" fill="none" stroke="#c4bba8" stroke-width="2.0" stroke-opacity="0.88"/>
<path d="M 881.2 558.0 Q 866.4 576.0 884.7 590.5" fill="none" stroke="#c4bba8" stroke-width="2.0" stroke-opacity="0.88"/>
<path d="M 933.4 673.6 Q 943.4 694.0 922.6 703.3" fill="none" stroke="#c4bba8" stroke-width="2.0" stroke-opacity="0.88"/>
<path d="M 933.4 673.6 Q 909.2 648.7 877.6 663.0" fill="none" stroke="#c4bba8" stroke-width="2.0" stroke-opacity="0.88"/>
<path d="M 933.4 673.6 Q 920.5 656.6 905.2 671.5" fill="none" stroke="#c4bba8" stroke-width="2.0" stroke-opacity="0.88"/>
<path d="M 725.1 657.1 Q 704.5 644.2 716.8 623.2" fill="none" stroke="#c4bba8" stroke-width="2.0" stroke-opacity="0.88"/>
<path d="M 725.1 657.1 Q 715.7 636.1 694.9 646.0" fill="none" stroke="#c4bba8" stroke-width="2.0" stroke-opacity="0.88"/>
<path d="M 884.7 590.5 Q 912.5 566.0 945.7 582.4" fill="none" stroke="#c4bba8" stroke-width="2.0" stroke-opacity="0.88"/>
<path d="M 884.7 590.5 Q 908.8 593.1 912.1 569.1" fill="none" stroke="#c4bba8" stroke-width="2.0" stroke-opacity="0.88"/>
<path d="M 884.7 590.5 Q 899.4 572.4 881.2 558.0" fill="none" stroke="#c4bba8" stroke-width="2.0" stroke-opacity="0.88"/>
<path d="M 801.6 621.4 Q 745.0 629.5 694.9 646.0" fill="none" stroke="#9a9080" stroke-width="1.45" stroke-opacity="0.88"/>
<path d="M 801.6 621.4 Q 799.0 646.5 801.1 671.8" fill="none" stroke="#9a9080" stroke-width="1.45" stroke-opacity="0.88"/>
<path d="M 801.6 621.4 Q 851.4 643.2 877.6 663.0" fill="none" stroke="#9a9080" stroke-width="1.45" stroke-opacity="0.88"/>
<path d="M 801.6 621.4 Q 853.2 598.1 884.7 590.5" fill="none" stroke="#9a9080" stroke-width="1.45" stroke-opacity="0.88"/>
<path d="M 801.6 621.4 Q 812.3 689.4 819.7 749.5" fill="none" stroke="#9a9080" stroke-width="1.45" stroke-opacity="0.88"/>
<path d="M 796.6 767.6 Q 786.8 739.0 812.2 722.7" fill="none" stroke="#c4bba8" stroke-width="2.0" stroke-opacity="0.88"/>
<path d="M 796.6 767.6 Q 785.6 787.3 805.9 797.3" fill="none" stroke="#c4bba8" stroke-width="2.0" stroke-opacity="0.88"/>
<path d="M 860.5 799.3 Q 833.9 778.7 805.9 797.3" fill="none" stroke="#c4bba8" stroke-width="2.0" stroke-opacity="0.88"/>
<path d="M 860.5 799.3 Q 883.0 799.1 881.6 776.7" fill="none" stroke="#c4bba8" stroke-width="2.0" stroke-opacity="0.88"/>
<path d="M 881.6 776.7 Q 859.1 776.8 860.5 799.3" fill="none" stroke="#c4bba8" stroke-width="2.0" stroke-opacity="0.88"/>
<path d="M 881.6 776.7 Q 859.3 743.4 819.7 749.5" fill="none" stroke="#c4bba8" stroke-width="2.0" stroke-opacity="0.88"/>
<path d="M 926.9 643.7 Q 895.2 635.3 877.6 663.0" fill="none" stroke="#c4bba8" stroke-width="2.0" stroke-opacity="0.88"/>
<path d="M 926.9 643.7 Q 902.7 647.1 905.2 671.5" fill="none" stroke="#c4bba8" stroke-width="2.0" stroke-opacity="0.88"/>
<path d="M 926.9 643.7 Q 909.7 658.0 896.5 640.0" fill="none" stroke="#c4bba8" stroke-width="2.0" stroke-opacity="0.88"/>
<path d="M 908.1 538.0 Q 893.9 555.6 912.1 569.1" fill="none" stroke="#c4bba8" stroke-width="2.0" stroke-opacity="0.88"/>
<path d="M 908.1 538.0 Q 932.5 563.1 917.3 594.7" fill="none" stroke="#c4bba8" stroke-width="2.0" stroke-opacity="0.88"/>
<path d="M 661.1 634.5 Q 672.5 656.3 694.9 646.0" fill="none" stroke="#c4bba8" stroke-width="2.0" stroke-opacity="0.88"/>
<path d="M 661.1 634.5 Q 684.3 635.7 685.2 612.5" fill="none" stroke="#c4bba8" stroke-width="2.0" stroke-opacity="0.88"/>
<path d="M 661.1 634.5 Q 648.0 652.9 667.1 665.0" fill="none" stroke="#c4bba8" stroke-width="2.0" stroke-opacity="0.88"/>
<path d="M 667.1 665.0 Q 671.6 641.7 694.9 646.0" fill="none" stroke="#c4bba8" stroke-width="2.0" stroke-opacity="0.88"/>
<path d="M 667.1 665.0 Q 680.2 646.6 661.1 634.5" fill="none" stroke="#c4bba8" stroke-width="2.0" stroke-opacity="0.88"/>
<path d="M 917.3 594.7 Q 930.1 578.8 912.1 569.1" fill="none" stroke="#c4bba8" stroke-width="2.0" stroke-opacity="0.88"/>
<path d="M 917.3 594.7 Q 892.9 569.5 908.1 538.0" fill="none" stroke="#c4bba8" stroke-width="2.0" stroke-opacity="0.88"/>
<path d="M 785.1 539.4 Q 785.2 563.1 761.4 563.4" fill="none" stroke="#c4bba8" stroke-width="2.0" stroke-opacity="0.88"/>
<path d="M 938.5 547.9 Q 906.3 533.1 881.2 558.0" fill="none" stroke="#c4bba8" stroke-width="2.0" stroke-opacity="0.88"/>
<path d="M 685.2 612.5 Q 706.3 624.6 694.9 646.0" fill="none" stroke="#c4bba8" stroke-width="2.0" stroke-opacity="0.88"/>
<path d="M 685.2 612.5 Q 695.7 633.6 716.8 623.2" fill="none" stroke="#c4bba8" stroke-width="2.0" stroke-opacity="0.88"/>
<path d="M 685.2 612.5 Q 662.0 611.3 661.1 634.5" fill="none" stroke="#c4bba8" stroke-width="2.0" stroke-opacity="0.88"/>
<path d="M 922.6 703.3 Q 912.6 682.8 933.4 673.6" fill="none" stroke="#c4bba8" stroke-width="2.0" stroke-opacity="0.88"/>
<path d="M 812.2 722.7 Q 831.3 731.8 819.7 749.5" fill="none" stroke="#c4bba8" stroke-width="2.0" stroke-opacity="0.88"/>
<path d="M 812.5 548.4 Q 815.9 570.9 793.2 573.4" fill="none" stroke="#c4bba8" stroke-width="2.0" stroke-opacity="0.88"/>
<path d="M 812.5 548.4 Q 833.5 554.3 825.7 574.8" fill="none" stroke="#c4bba8" stroke-width="2.0" stroke-opacity="0.88"/>
<path d="M 896.5 640.0 Q 874.5 641.2 877.6 663.0" fill="none" stroke="#c4bba8" stroke-width="2.0" stroke-opacity="0.88"/>
<path d="M 896.5 640.0 Q 884.8 660.1 905.2 671.5" fill="none" stroke="#c4bba8" stroke-width="2.0" stroke-opacity="0.88"/>
<path d="M 896.5 640.0 Q 913.7 625.7 926.9 643.7" fill="none" stroke="#c4bba8" stroke-width="2.0" stroke-opacity="0.88"/>
<path d="M 774.9 660.8 Q 794.2 651.6 801.1 671.8" fill="none" stroke="#c4bba8" stroke-width="2.0" stroke-opacity="0.88"/>
<path d="M 774.9 660.8 Q 800.4 642.6 824.7 662.4" fill="none" stroke="#c4bba8" stroke-width="2.0" stroke-opacity="0.88"/>
<path d="M 945.7 582.4 Q 917.9 606.8 884.7 590.5" fill="none" stroke="#c4bba8" stroke-width="2.0" stroke-opacity="0.88"/>
<circle cx="853.6" cy="765.2" r="6" fill="#6f9e92"/>
<circle cx="781.2" cy="454.0" r="6" fill="#8b8478"/>
<circle cx="792.0" cy="483.4" r="8" fill="#c6a35a"/>
<circle cx="777.1" cy="691.1" r="6" fill="#8b8478"/>
<circle cx="805.9" cy="797.3" r="6" fill="#c48472"/>
<circle cx="830.6" cy="820.8" r="6" fill="#6f87a8"/>
<circle cx="837.2" cy="706.1" r="6" fill="#c48472"/>
<circle cx="766.2" cy="763.7" r="6" fill="#c48472"/>
<circle cx="756.1" cy="731.8" r="6" fill="#c48472"/>
<circle cx="827.6" cy="770.9" r="6" fill="#c48472"/>
<circle cx="844.9" cy="735.4" r="6" fill="#c48472"/>
<circle cx="878.1" cy="741.8" r="6" fill="#c48472"/>
<circle cx="775.7" cy="797.4" r="6" fill="#c48472"/>
<circle cx="868.0" cy="711.1" r="6" fill="#c48472"/>
<circle cx="788.2" cy="737.2" r="6" fill="#c48472"/>
<circle cx="833.2" cy="793.1" r="6" fill="#c48472"/>
<circle cx="761.4" cy="563.4" r="6" fill="#c6a35a"/>
<circle cx="824.7" cy="662.4" r="6" fill="#c6a35a"/>
<circle cx="793.2" cy="573.4" r="6" fill="#c6a35a"/>
<circle cx="651.1" cy="601.0" r="6" fill="#c6a35a"/>
<circle cx="825.7" cy="574.8" r="6" fill="#c6a35a"/>
<circle cx="912.1" cy="569.1" r="6" fill="#c6a35a"/>
<circle cx="774.9" cy="504.6" r="6" fill="#c6a35a"/>
<circle cx="905.2" cy="671.5" r="6" fill="#c6a35a"/>
<circle cx="801.1" cy="671.8" r="6" fill="#c6a35a"/>
<circle cx="819.7" cy="749.5" r="6" fill="#c6a35a"/>
<circle cx="694.9" cy="646.0" r="6" fill="#c6a35a"/>
<circle cx="716.8" cy="623.2" r="6" fill="#c6a35a"/>
<circle cx="819.4" cy="471.3" r="6" fill="#c6a35a"/>
<circle cx="877.6" cy="663.0" r="6" fill="#c6a35a"/>
<circle cx="881.2" cy="558.0" r="6" fill="#c6a35a"/>
<circle cx="933.4" cy="673.6" r="6" fill="#c6a35a"/>
<circle cx="725.1" cy="657.1" r="6" fill="#c6a35a"/>
<circle cx="884.7" cy="590.5" r="6" fill="#c6a35a"/>
<circle cx="801.6" cy="621.4" r="10" fill="#c6a35a"/>
<circle cx="760.0" cy="528.1" r="6" fill="#c6a35a"/>
<circle cx="808.0" cy="512.1" r="6" fill="#c6a35a"/>
<circle cx="796.6" cy="767.6" r="6" fill="#6f9e92"/>
<circle cx="860.5" cy="799.3" r="6" fill="#6f9e92"/>
<circle cx="881.6" cy="776.7" r="6" fill="#6f9e92"/>
<circle cx="926.9" cy="643.7" r="6" fill="#7d9a6e"/>
<circle cx="908.1" cy="538.0" r="6" fill="#7d9a6e"/>
<circle cx="661.1" cy="634.5" r="6" fill="#7d9a6e"/>
<circle cx="667.1" cy="665.0" r="6" fill="#6f87a8"/>
<circle cx="840.1" cy="497.4" r="6" fill="#6f87a8"/>
<circle cx="755.5" cy="477.6" r="6" fill="#6f87a8"/>
<circle cx="917.3" cy="594.7" r="6" fill="#6f87a8"/>
<circle cx="785.1" cy="539.4" r="6" fill="#6f87a8"/>
<circle cx="938.5" cy="547.9" r="6" fill="#6f87a8"/>
<circle cx="837.4" cy="530.1" r="6" fill="#6f87a8"/>
<circle cx="685.2" cy="612.5" r="6" fill="#6f87a8"/>
<circle cx="732.7" cy="542.3" r="6" fill="#6f87a8"/>
<circle cx="922.6" cy="703.3" r="6" fill="#6f87a8"/>
<circle cx="812.2" cy="722.7" r="6" fill="#6f87a8"/>
<circle cx="738.6" cy="505.7" r="6" fill="#6f87a8"/>
<circle cx="812.5" cy="548.4" r="6" fill="#6f87a8"/>
<circle cx="896.5" cy="640.0" r="6" fill="#6f87a8"/>
<circle cx="774.9" cy="660.8" r="6" fill="#6f87a8"/>
<circle cx="945.7" cy="582.4" r="6" fill="#6f87a8"/>
</svg>