<svg xmlns="http://www.w3.org/2000/svg" viewBox="0 0 1400 1100" width="1400" height="1100">
<rect width="100%" height="100%" fill="#0f1115"/>
<text x="40" y="48" fill="#e7e5e4" font-family="ui-sans-serif,system-ui,sans-serif" font-size="22">Second brain · Obsidian graph</text>
<text x="40" y="74" fill="#a8a29e" font-family="ui-sans-serif,system-ui,sans-serif" font-size="13">gold wiki · teal maps · blue hunt/twitter · green people · coral ship</text>
<line x1="342.0" y1="570.0" x2="1058.0" y2="570.0" stroke="#3f3f46" stroke-width="1.1"/>
<line x1="342.0" y1="570.0" x2="700.0" y2="230.0" stroke="#3f3f46" stroke-width="1.1"/>
<line x1="342.0" y1="570.0" x2="700.0" y2="910.0" stroke="#3f3f46" stroke-width="1.1"/>
<line x1="267.0" y1="320.0" x2="633.5" y2="839.9" stroke="#3f3f46" stroke-width="1.1"/>
<line x1="267.0" y1="320.0" x2="471.2" y2="412.1" stroke="#3f3f46" stroke-width="1.1"/>
<line x1="267.0" y1="320.0" x2="579.2" y2="339.8" stroke="#3f3f46" stroke-width="1.1"/>
<line x1="267.0" y1="320.0" x2="829.2" y2="323.8" stroke="#3f3f46" stroke-width="1.1"/>
<line x1="267.0" y1="320.0" x2="527.6" y2="764.6" stroke="#3f3f46" stroke-width="1.1"/>
<line x1="267.0" y1="320.0" x2="976.0" y2="536.5" stroke="#3f3f46" stroke-width="1.1"/>
<line x1="267.0" y1="320.0" x2="762.2" y2="822.4" stroke="#3f3f46" stroke-width="1.1"/>
<line x1="267.0" y1="320.0" x2="700.0" y2="310.0" stroke="#3f3f46" stroke-width="1.1"/>
<line x1="267.0" y1="320.0" x2="981.5" y2="234.5" stroke="#3f3f46" stroke-width="1.1"/>
<line x1="441.0" y1="121.4" x2="578.8" y2="640.0" stroke="#3f3f46" stroke-width="1.1"/>
<line x1="441.0" y1="121.4" x2="700.0" y2="728.0" stroke="#3f3f46" stroke-width="1.1"/>
<line x1="441.0" y1="121.4" x2="836.8" y2="491.0" stroke="#3f3f46" stroke-width="1.1"/>
<line x1="700.0" y1="570.0" x2="441.0" y2="121.4" stroke="#3f3f46" stroke-width="1.1"/>
<line x1="700.0" y1="570.0" x2="342.0" y2="570.0" stroke="#3f3f46" stroke-width="1.1"/>
<line x1="700.0" y1="570.0" x2="1109.5" y2="663.5" stroke="#3f3f46" stroke-width="1.1"/>
<line x1="700.0" y1="570.0" x2="371.6" y2="308.1" stroke="#3f3f46" stroke-width="1.1"/>
<line x1="700.0" y1="570.0" x2="700.0" y2="70.0" stroke="#3f3f46" stroke-width="1.1"/>
<line x1="700.0" y1="570.0" x2="1148.6" y2="829.0" stroke="#3f3f46" stroke-width="1.1"/>
<line x1="700.0" y1="570.0" x2="267.0" y2="820.0" stroke="#3f3f46" stroke-width="1.1"/>
<line x1="700.0" y1="570.0" x2="390.0" y2="391.0" stroke="#3f3f46" stroke-width="1.1"/>
<line x1="700.0" y1="570.0" x2="943.1" y2="662.2" stroke="#3f3f46" stroke-width="1.1"/>
<line x1="700.0" y1="570.0" x2="700.0" y2="430.0" stroke="#3f3f46" stroke-width="1.1"/>
<line x1="700.0" y1="570.0" x2="578.8" y2="640.0" stroke="#3f3f46" stroke-width="1.1"/>
<line x1="700.0" y1="570.0" x2="836.8" y2="491.0" stroke="#3f3f46" stroke-width="1.1"/>
<line x1="700.0" y1="570.0" x2="821.2" y2="640.0" stroke="#3f3f46" stroke-width="1.1"/>
<line x1="700.0" y1="570.0" x2="1058.0" y2="570.0" stroke="#3f3f46" stroke-width="1.1"/>
<line x1="700.0" y1="570.0" x2="700.0" y2="910.0" stroke="#3f3f46" stroke-width="1.1"/>
<line x1="700.0" y1="570.0" x2="890.0" y2="964.6" stroke="#3f3f46" stroke-width="1.1"/>
<line x1="700.0" y1="570.0" x2="405.6" y2="740.0" stroke="#3f3f46" stroke-width="1.1"/>
<line x1="182.0" y1="570.0" x2="527.6" y2="764.6" stroke="#3f3f46" stroke-width="1.1"/>
<line x1="390.0" y1="391.0" x2="994.4" y2="740.0" stroke="#3f3f46" stroke-width="1.1"/>
<line x1="390.0" y1="391.0" x2="700.0" y2="928.0" stroke="#3f3f46" stroke-width="1.1"/>
<line x1="390.0" y1="391.0" x2="700.0" y2="230.0" stroke="#3f3f46" stroke-width="1.1"/>
<line x1="390.0" y1="391.0" x2="1010.0" y2="391.0" stroke="#3f3f46" stroke-width="1.1"/>
<line x1="390.0" y1="391.0" x2="405.6" y2="740.0" stroke="#3f3f46" stroke-width="1.1"/>
<line x1="1109.5" y1="663.5" x2="762.2" y2="822.4" stroke="#3f3f46" stroke-width="1.1"/>
<line x1="1109.5" y1="663.5" x2="371.6" y2="308.1" stroke="#3f3f46" stroke-width="1.1"/>
<line x1="1109.5" y1="663.5" x2="700.0" y2="150.0" stroke="#3f3f46" stroke-width="1.1"/>
<line x1="1109.5" y1="663.5" x2="1042.4" y2="296.9" stroke="#3f3f46" stroke-width="1.1"/>
<line x1="1109.5" y1="663.5" x2="273.0" y2="667.5" stroke="#3f3f46" stroke-width="1.1"/>
<line x1="1109.5" y1="663.5" x2="517.8" y2="948.4" stroke="#3f3f46" stroke-width="1.1"/>
<line x1="1109.5" y1="663.5" x2="890.0" y2="964.6" stroke="#3f3f46" stroke-width="1.1"/>
<line x1="700.0" y1="230.0" x2="700.0" y2="230.0" stroke="#3f3f46" stroke-width="1.1"/>
<line x1="700.0" y1="230.0" x2="633.5" y2="839.9" stroke="#3f3f46" stroke-width="1.1"/>
<line x1="700.0" y1="230.0" x2="527.6" y2="764.6" stroke="#3f3f46" stroke-width="1.1"/>
<line x1="700.0" y1="230.0" x2="829.2" y2="323.8" stroke="#3f3f46" stroke-width="1.1"/>
<line x1="700.0" y1="230.0" x2="762.2" y2="822.4" stroke="#3f3f46" stroke-width="1.1"/>
<line x1="994.4" y1="740.0" x2="405.6" y2="740.0" stroke="#3f3f46" stroke-width="1.1"/>
<line x1="994.4" y1="740.0" x2="700.0" y2="430.0" stroke="#3f3f46" stroke-width="1.1"/>
<line x1="700.0" y1="150.0" x2="633.5" y2="839.9" stroke="#3f3f46" stroke-width="1.1"/>
<line x1="700.0" y1="150.0" x2="441.9" y2="538.7" stroke="#3f3f46" stroke-width="1.1"/>
<line x1="371.6" y1="308.1" x2="762.2" y2="822.4" stroke="#3f3f46" stroke-width="1.1"/>
<line x1="371.6" y1="308.1" x2="700.0" y2="150.0" stroke="#3f3f46" stroke-width="1.1"/>
<line x1="371.6" y1="308.1" x2="268.7" y2="493.9" stroke="#3f3f46" stroke-width="1.1"/>
<line x1="371.6" y1="308.1" x2="430.0" y2="248.3" stroke="#3f3f46" stroke-width="1.1"/>
<line x1="371.6" y1="308.1" x2="336.3" y2="780.0" stroke="#3f3f46" stroke-width="1.1"/>
<line x1="371.6" y1="308.1" x2="1079.3" y2="789.0" stroke="#3f3f46" stroke-width="1.1"/>
<line x1="371.6" y1="308.1" x2="1113.6" y2="497.1" stroke="#3f3f46" stroke-width="1.1"/>
<line x1="371.6" y1="308.1" x2="550.2" y2="981.6" stroke="#3f3f46" stroke-width="1.1"/>
<line x1="371.6" y1="308.1" x2="981.5" y2="234.5" stroke="#3f3f46" stroke-width="1.1"/>
<line x1="371.6" y1="308.1" x2="843.6" y2="964.7" stroke="#3f3f46" stroke-width="1.1"/>
<line x1="405.6" y1="740.0" x2="836.8" y2="491.0" stroke="#3f3f46" stroke-width="1.1"/>
<line x1="405.6" y1="740.0" x2="821.2" y2="640.0" stroke="#3f3f46" stroke-width="1.1"/>
<line x1="527.6" y1="764.6" x2="700.0" y2="150.0" stroke="#3f3f46" stroke-width="1.1"/>
<line x1="527.6" y1="764.6" x2="440.1" y2="668.6" stroke="#3f3f46" stroke-width="1.1"/>
<line x1="527.6" y1="764.6" x2="579.2" y2="339.8" stroke="#3f3f46" stroke-width="1.1"/>
<line x1="700.0" y1="728.0" x2="633.5" y2="839.9" stroke="#3f3f46" stroke-width="1.1"/>
<line x1="700.0" y1="728.0" x2="700.0" y2="570.0" stroke="#3f3f46" stroke-width="1.1"/>
<line x1="700.0" y1="728.0" x2="943.1" y2="662.2" stroke="#3f3f46" stroke-width="1.1"/>
<line x1="700.0" y1="728.0" x2="578.8" y2="640.0" stroke="#3f3f46" stroke-width="1.1"/>
<line x1="700.0" y1="728.0" x2="821.2" y2="640.0" stroke="#3f3f46" stroke-width="1.1"/>
<line x1="700.0" y1="728.0" x2="471.2" y2="412.1" stroke="#3f3f46" stroke-width="1.1"/>
<line x1="700.0" y1="728.0" x2="914.0" y2="422.3" stroke="#3f3f46" stroke-width="1.1"/>
<line x1="700.0" y1="728.0" x2="182.0" y2="570.0" stroke="#3f3f46" stroke-width="1.1"/>
<line x1="700.0" y1="728.0" x2="527.6" y2="764.6" stroke="#3f3f46" stroke-width="1.1"/>
<line x1="700.0" y1="728.0" x2="267.0" y2="320.0" stroke="#3f3f46" stroke-width="1.1"/>
<line x1="700.0" y1="728.0" x2="579.2" y2="339.8" stroke="#3f3f46" stroke-width="1.1"/>
<line x1="700.0" y1="728.0" x2="829.2" y2="323.8" stroke="#3f3f46" stroke-width="1.1"/>
<line x1="700.0" y1="728.0" x2="976.0" y2="536.5" stroke="#3f3f46" stroke-width="1.1"/>
<line x1="441.9" y1="538.7" x2="843.6" y2="964.7" stroke="#3f3f46" stroke-width="1.1"/>
<line x1="441.9" y1="538.7" x2="1148.6" y2="829.0" stroke="#3f3f46" stroke-width="1.1"/>
<line x1="441.9" y1="538.7" x2="579.2" y2="339.8" stroke="#3f3f46" stroke-width="1.1"/>
<line x1="441.9" y1="538.7" x2="976.0" y2="536.5" stroke="#3f3f46" stroke-width="1.1"/>
<line x1="884.3" y1="778.1" x2="268.7" y2="493.9" stroke="#3f3f46" stroke-width="1.1"/>
<line x1="884.3" y1="778.1" x2="829.2" y2="323.8" stroke="#3f3f46" stroke-width="1.1"/>
<line x1="884.3" y1="778.1" x2="267.0" y2="820.0" stroke="#3f3f46" stroke-width="1.1"/>
<line x1="563.2" y1="491.0" x2="700.0" y2="570.0" stroke="#3f3f46" stroke-width="1.1"/>
<line x1="563.2" y1="491.0" x2="342.0" y2="570.0" stroke="#3f3f46" stroke-width="1.1"/>
<line x1="563.2" y1="491.0" x2="1109.5" y2="663.5" stroke="#3f3f46" stroke-width="1.1"/>
<line x1="563.2" y1="491.0" x2="390.0" y2="391.0" stroke="#3f3f46" stroke-width="1.1"/>
<line x1="563.2" y1="491.0" x2="821.2" y2="640.0" stroke="#3f3f46" stroke-width="1.1"/>
<line x1="563.2" y1="491.0" x2="836.8" y2="491.0" stroke="#3f3f46" stroke-width="1.1"/>
<line x1="563.2" y1="491.0" x2="633.5" y2="839.9" stroke="#3f3f46" stroke-width="1.1"/>
<line x1="563.2" y1="491.0" x2="471.2" y2="412.1" stroke="#3f3f46" stroke-width="1.1"/>
<line x1="563.2" y1="491.0" x2="440.1" y2="668.6" stroke="#3f3f46" stroke-width="1.1"/>
<line x1="563.2" y1="491.0" x2="527.6" y2="764.6" stroke="#3f3f46" stroke-width="1.1"/>
<line x1="563.2" y1="491.0" x2="579.2" y2="339.8" stroke="#3f3f46" stroke-width="1.1"/>
<line x1="563.2" y1="491.0" x2="829.2" y2="323.8" stroke="#3f3f46" stroke-width="1.1"/>
<line x1="563.2" y1="491.0" x2="884.3" y2="778.1" stroke="#3f3f46" stroke-width="1.1"/>
<line x1="563.2" y1="491.0" x2="976.0" y2="536.5" stroke="#3f3f46" stroke-width="1.1"/>
<line x1="563.2" y1="491.0" x2="441.9" y2="538.7" stroke="#3f3f46" stroke-width="1.1"/>
<line x1="563.2" y1="491.0" x2="700.0" y2="310.0" stroke="#3f3f46" stroke-width="1.1"/>
<line x1="563.2" y1="491.0" x2="762.2" y2="822.4" stroke="#3f3f46" stroke-width="1.1"/>
<line x1="563.2" y1="491.0" x2="914.0" y2="422.3" stroke="#3f3f46" stroke-width="1.1"/>
<line x1="563.2" y1="491.0" x2="700.0" y2="70.0" stroke="#3f3f46" stroke-width="1.1"/>
<line x1="563.2" y1="491.0" x2="1148.6" y2="829.0" stroke="#3f3f46" stroke-width="1.1"/>
<line x1="563.2" y1="491.0" x2="267.0" y2="820.0" stroke="#3f3f46" stroke-width="1.1"/>
<line x1="440.1" y1="668.6" x2="700.0" y2="150.0" stroke="#3f3f46" stroke-width="1.1"/>
<line x1="440.1" y1="668.6" x2="527.6" y2="764.6" stroke="#3f3f46" stroke-width="1.1"/>
<line x1="440.1" y1="668.6" x2="829.2" y2="323.8" stroke="#3f3f46" stroke-width="1.1"/>
<line x1="440.1" y1="668.6" x2="976.0" y2="536.5" stroke="#3f3f46" stroke-width="1.1"/>
<line x1="762.2" y1="822.4" x2="981.5" y2="234.5" stroke="#3f3f46" stroke-width="1.1"/>
<line x1="762.2" y1="822.4" x2="1109.5" y2="663.5" stroke="#3f3f46" stroke-width="1.1"/>
<line x1="762.2" y1="822.4" x2="390.0" y2="391.0" stroke="#3f3f46" stroke-width="1.1"/>
<line x1="762.2" y1="822.4" x2="342.0" y2="570.0" stroke="#3f3f46" stroke-width="1.1"/>
<line x1="762.2" y1="822.4" x2="633.5" y2="839.9" stroke="#3f3f46" stroke-width="1.1"/>
<line x1="762.2" y1="822.4" x2="914.0" y2="422.3" stroke="#3f3f46" stroke-width="1.1"/>
<line x1="633.5" y1="839.9" x2="578.8" y2="640.0" stroke="#3f3f46" stroke-width="1.1"/>
<line x1="633.5" y1="839.9" x2="471.2" y2="412.1" stroke="#3f3f46" stroke-width="1.1"/>
<line x1="633.5" y1="839.9" x2="700.0" y2="70.0" stroke="#3f3f46" stroke-width="1.1"/>
<line x1="633.5" y1="839.9" x2="336.3" y2="780.0" stroke="#3f3f46" stroke-width="1.1"/>
<line x1="633.5" y1="839.9" x2="1113.6" y2="497.1" stroke="#3f3f46" stroke-width="1.1"/>
<line x1="633.5" y1="839.9" x2="700.0" y2="728.0" stroke="#3f3f46" stroke-width="1.1"/>
<line x1="471.2" y1="412.1" x2="336.3" y2="780.0" stroke="#3f3f46" stroke-width="1.1"/>
<line x1="471.2" y1="412.1" x2="633.5" y2="839.9" stroke="#3f3f46" stroke-width="1.1"/>
<line x1="471.2" y1="412.1" x2="914.0" y2="422.3" stroke="#3f3f46" stroke-width="1.1"/>
<line x1="578.8" y1="640.0" x2="700.0" y2="570.0" stroke="#3f3f46" stroke-width="1.1"/>
<line x1="578.8" y1="640.0" x2="943.1" y2="662.2" stroke="#3f3f46" stroke-width="1.1"/>
<line x1="578.8" y1="640.0" x2="700.0" y2="728.0" stroke="#3f3f46" stroke-width="1.1"/>
<line x1="578.8" y1="640.0" x2="836.8" y2="491.0" stroke="#3f3f46" stroke-width="1.1"/>
<line x1="578.8" y1="640.0" x2="821.2" y2="640.0" stroke="#3f3f46" stroke-width="1.1"/>
<line x1="578.8" y1="640.0" x2="633.5" y2="839.9" stroke="#3f3f46" stroke-width="1.1"/>
<line x1="578.8" y1="640.0" x2="342.0" y2="570.0" stroke="#3f3f46" stroke-width="1.1"/>
<line x1="578.8" y1="640.0" x2="1109.5" y2="663.5" stroke="#3f3f46" stroke-width="1.1"/>
<line x1="578.8" y1="640.0" x2="390.0" y2="391.0" stroke="#3f3f46" stroke-width="1.1"/>
<line x1="578.8" y1="640.0" x2="471.2" y2="412.1" stroke="#3f3f46" stroke-width="1.1"/>
<line x1="578.8" y1="640.0" x2="440.1" y2="668.6" stroke="#3f3f46" stroke-width="1.1"/>
<line x1="578.8" y1="640.0" x2="527.6" y2="764.6" stroke="#3f3f46" stroke-width="1.1"/>
<line x1="578.8" y1="640.0" x2="579.2" y2="339.8" stroke="#3f3f46" stroke-width="1.1"/>
<line x1="578.8" y1="640.0" x2="829.2" y2="323.8" stroke="#3f3f46" stroke-width="1.1"/>
<line x1="578.8" y1="640.0" x2="884.3" y2="778.1" stroke="#3f3f46" stroke-width="1.1"/>
<line x1="578.8" y1="640.0" x2="976.0" y2="536.5" stroke="#3f3f46" stroke-width="1.1"/>
<line x1="578.8" y1="640.0" x2="441.9" y2="538.7" stroke="#3f3f46" stroke-width="1.1"/>
<line x1="578.8" y1="640.0" x2="700.0" y2="310.0" stroke="#3f3f46" stroke-width="1.1"/>
<line x1="578.8" y1="640.0" x2="762.2" y2="822.4" stroke="#3f3f46" stroke-width="1.1"/>
<line x1="578.8" y1="640.0" x2="914.0" y2="422.3" stroke="#3f3f46" stroke-width="1.1"/>
<line x1="578.8" y1="640.0" x2="700.0" y2="150.0" stroke="#3f3f46" stroke-width="1.1"/>
<line x1="578.8" y1="640.0" x2="268.7" y2="493.9" stroke="#3f3f46" stroke-width="1.1"/>
<line x1="578.8" y1="640.0" x2="430.0" y2="248.3" stroke="#3f3f46" stroke-width="1.1"/>
<line x1="578.8" y1="640.0" x2="336.3" y2="780.0" stroke="#3f3f46" stroke-width="1.1"/>
<line x1="578.8" y1="640.0" x2="1079.3" y2="789.0" stroke="#3f3f46" stroke-width="1.1"/>
<line x1="578.8" y1="640.0" x2="843.6" y2="964.7" stroke="#3f3f46" stroke-width="1.1"/>
<line x1="578.8" y1="640.0" x2="1113.6" y2="497.1" stroke="#3f3f46" stroke-width="1.1"/>
<line x1="578.8" y1="640.0" x2="981.5" y2="234.5" stroke="#3f3f46" stroke-width="1.1"/>
<line x1="578.8" y1="640.0" x2="550.2" y2="981.6" stroke="#3f3f46" stroke-width="1.1"/>
<line x1="578.8" y1="640.0" x2="700.0" y2="70.0" stroke="#3f3f46" stroke-width="1.1"/>
<line x1="578.8" y1="640.0" x2="1148.6" y2="829.0" stroke="#3f3f46" stroke-width="1.1"/>
<line x1="578.8" y1="640.0" x2="267.0" y2="820.0" stroke="#3f3f46" stroke-width="1.1"/>
<line x1="578.8" y1="640.0" x2="182.0" y2="570.0" stroke="#3f3f46" stroke-width="1.1"/>
<line x1="578.8" y1="640.0" x2="267.0" y2="320.0" stroke="#3f3f46" stroke-width="1.1"/>
<line x1="829.2" y1="323.8" x2="268.7" y2="493.9" stroke="#3f3f46" stroke-width="1.1"/>
<line x1="829.2" y1="323.8" x2="884.3" y2="778.1" stroke="#3f3f46" stroke-width="1.1"/>
<line x1="829.2" y1="323.8" x2="976.0" y2="536.5" stroke="#3f3f46" stroke-width="1.1"/>
<line x1="829.2" y1="323.8" x2="440.1" y2="668.6" stroke="#3f3f46" stroke-width="1.1"/>
<line x1="700.0" y1="310.0" x2="550.2" y2="981.6" stroke="#3f3f46" stroke-width="1.1"/>
<line x1="700.0" y1="310.0" x2="579.2" y2="339.8" stroke="#3f3f46" stroke-width="1.1"/>
<line x1="976.0" y1="536.5" x2="1079.3" y2="789.0" stroke="#3f3f46" stroke-width="1.1"/>
<line x1="976.0" y1="536.5" x2="821.2" y2="640.0" stroke="#3f3f46" stroke-width="1.1"/>
<line x1="976.0" y1="536.5" x2="829.2" y2="323.8" stroke="#3f3f46" stroke-width="1.1"/>
<line x1="976.0" y1="536.5" x2="441.9" y2="538.7" stroke="#3f3f46" stroke-width="1.1"/>
<line x1="976.0" y1="536.5" x2="440.1" y2="668.6" stroke="#3f3f46" stroke-width="1.1"/>
<line x1="914.0" y1="422.3" x2="981.5" y2="234.5" stroke="#3f3f46" stroke-width="1.1"/>
<line x1="914.0" y1="422.3" x2="471.2" y2="412.1" stroke="#3f3f46" stroke-width="1.1"/>
<line x1="914.0" y1="422.3" x2="633.5" y2="839.9" stroke="#3f3f46" stroke-width="1.1"/>
<line x1="914.0" y1="422.3" x2="440.1" y2="668.6" stroke="#3f3f46" stroke-width="1.1"/>
<line x1="579.2" y1="339.8" x2="430.0" y2="248.3" stroke="#3f3f46" stroke-width="1.1"/>
<line x1="579.2" y1="339.8" x2="821.2" y2="640.0" stroke="#3f3f46" stroke-width="1.1"/>
<line x1="579.2" y1="339.8" x2="527.6" y2="764.6" stroke="#3f3f46" stroke-width="1.1"/>
<line x1="579.2" y1="339.8" x2="441.9" y2="538.7" stroke="#3f3f46" stroke-width="1.1"/>
<line x1="836.8" y1="491.0" x2="633.5" y2="839.9" stroke="#3f3f46" stroke-width="1.1"/>
<line x1="836.8" y1="491.0" x2="471.2" y2="412.1" stroke="#3f3f46" stroke-width="1.1"/>
<line x1="836.8" y1="491.0" x2="440.1" y2="668.6" stroke="#3f3f46" stroke-width="1.1"/>
<line x1="836.8" y1="491.0" x2="527.6" y2="764.6" stroke="#3f3f46" stroke-width="1.1"/>
<line x1="836.8" y1="491.0" x2="829.2" y2="323.8" stroke="#3f3f46" stroke-width="1.1"/>
<line x1="836.8" y1="491.0" x2="884.3" y2="778.1" stroke="#3f3f46" stroke-width="1.1"/>
<line x1="836.8" y1="491.0" x2="976.0" y2="536.5" stroke="#3f3f46" stroke-width="1.1"/>
<line x1="836.8" y1="491.0" x2="579.2" y2="339.8" stroke="#3f3f46" stroke-width="1.1"/>
<line x1="836.8" y1="491.0" x2="441.9" y2="538.7" stroke="#3f3f46" stroke-width="1.1"/>
<line x1="836.8" y1="491.0" x2="700.0" y2="310.0" stroke="#3f3f46" stroke-width="1.1"/>
<line x1="836.8" y1="491.0" x2="762.2" y2="822.4" stroke="#3f3f46" stroke-width="1.1"/>
<line x1="836.8" y1="491.0" x2="821.2" y2="640.0" stroke="#3f3f46" stroke-width="1.1"/>
<line x1="836.8" y1="491.0" x2="336.3" y2="780.0" stroke="#3f3f46" stroke-width="1.1"/>
<line x1="836.8" y1="491.0" x2="700.0" y2="728.0" stroke="#3f3f46" stroke-width="1.1"/>
<line x1="836.8" y1="491.0" x2="578.8" y2="640.0" stroke="#3f3f46" stroke-width="1.1"/>
<line x1="700.0" y1="430.0" x2="700.0" y2="570.0" stroke="#3f3f46" stroke-width="1.1"/>
<line x1="700.0" y1="430.0" x2="836.8" y2="491.0" stroke="#3f3f46" stroke-width="1.1"/>
<line x1="700.0" y1="430.0" x2="821.2" y2="640.0" stroke="#3f3f46" stroke-width="1.1"/>
<line x1="700.0" y1="430.0" x2="890.0" y2="964.6" stroke="#3f3f46" stroke-width="1.1"/>
<line x1="821.2" y1="640.0" x2="1113.6" y2="497.1" stroke="#3f3f46" stroke-width="1.1"/>
<line x1="821.2" y1="640.0" x2="700.0" y2="70.0" stroke="#3f3f46" stroke-width="1.1"/>
<line x1="821.2" y1="640.0" x2="336.3" y2="780.0" stroke="#3f3f46" stroke-width="1.1"/>
<line x1="821.2" y1="640.0" x2="1079.3" y2="789.0" stroke="#3f3f46" stroke-width="1.1"/>
<line x1="821.2" y1="640.0" x2="976.0" y2="536.5" stroke="#3f3f46" stroke-width="1.1"/>
<line x1="821.2" y1="640.0" x2="829.2" y2="323.8" stroke="#3f3f46" stroke-width="1.1"/>
<line x1="821.2" y1="640.0" x2="527.6" y2="764.6" stroke="#3f3f46" stroke-width="1.1"/>
<line x1="821.2" y1="640.0" x2="430.0" y2="248.3" stroke="#3f3f46" stroke-width="1.1"/>
<line x1="700.0" y1="230.0" x2="981.5" y2="234.5" stroke="#3f3f46" stroke-width="1.1"/>
<line x1="700.0" y1="230.0" x2="371.6" y2="308.1" stroke="#3f3f46" stroke-width="1.1"/>
<line x1="700.0" y1="230.0" x2="821.2" y2="640.0" stroke="#3f3f46" stroke-width="1.1"/>
<line x1="700.0" y1="230.0" x2="390.0" y2="391.0" stroke="#3f3f46" stroke-width="1.1"/>
<line x1="700.0" y1="230.0" x2="267.0" y2="320.0" stroke="#3f3f46" stroke-width="1.1"/>
<line x1="700.0" y1="230.0" x2="633.5" y2="839.9" stroke="#3f3f46" stroke-width="1.1"/>
<line x1="700.0" y1="230.0" x2="471.2" y2="412.1" stroke="#3f3f46" stroke-width="1.1"/>
<line x1="1058.0" y1="570.0" x2="700.0" y2="570.0" stroke="#3f3f46" stroke-width="1.1"/>
<line x1="1058.0" y1="570.0" x2="578.8" y2="640.0" stroke="#3f3f46" stroke-width="1.1"/>
<line x1="1058.0" y1="570.0" x2="182.0" y2="570.0" stroke="#3f3f46" stroke-width="1.1"/>
<line x1="1058.0" y1="570.0" x2="267.0" y2="320.0" stroke="#3f3f46" stroke-width="1.1"/>
<line x1="1058.0" y1="570.0" x2="441.0" y2="121.4" stroke="#3f3f46" stroke-width="1.1"/>
<line x1="1058.0" y1="570.0" x2="390.0" y2="391.0" stroke="#3f3f46" stroke-width="1.1"/>
<line x1="1058.0" y1="570.0" x2="700.0" y2="728.0" stroke="#3f3f46" stroke-width="1.1"/>
<line x1="1058.0" y1="570.0" x2="836.8" y2="491.0" stroke="#3f3f46" stroke-width="1.1"/>
<line x1="1058.0" y1="570.0" x2="700.0" y2="910.0" stroke="#3f3f46" stroke-width="1.1"/>
<line x1="700.0" y1="910.0" x2="578.8" y2="640.0" stroke="#3f3f46" stroke-width="1.1"/>
<line x1="700.0" y1="910.0" x2="821.2" y2="640.0" stroke="#3f3f46" stroke-width="1.1"/>
<line x1="700.0" y1="910.0" x2="1058.0" y2="570.0" stroke="#3f3f46" stroke-width="1.1"/>
<line x1="700.0" y1="910.0" x2="836.8" y2="491.0" stroke="#3f3f46" stroke-width="1.1"/>
<line x1="700.0" y1="910.0" x2="762.2" y2="822.4" stroke="#3f3f46" stroke-width="1.1"/>
<line x1="1133.0" y1="820.0" x2="700.0" y2="310.0" stroke="#3f3f46" stroke-width="1.1"/>
<line x1="1133.0" y1="320.0" x2="821.2" y2="640.0" stroke="#3f3f46" stroke-width="1.1"/>
<line x1="267.0" y1="820.0" x2="829.2" y2="323.8" stroke="#3f3f46" stroke-width="1.1"/>
<line x1="267.0" y1="820.0" x2="884.3" y2="778.1" stroke="#3f3f46" stroke-width="1.1"/>
<line x1="267.0" y1="820.0" x2="268.7" y2="493.9" stroke="#3f3f46" stroke-width="1.1"/>
<line x1="1148.6" y1="829.0" x2="441.9" y2="538.7" stroke="#3f3f46" stroke-width="1.1"/>
<line x1="1148.6" y1="829.0" x2="843.6" y2="964.7" stroke="#3f3f46" stroke-width="1.1"/>
<line x1="700.0" y1="70.0" x2="821.2" y2="640.0" stroke="#3f3f46" stroke-width="1.1"/>
<line x1="700.0" y1="70.0" x2="633.5" y2="839.9" stroke="#3f3f46" stroke-width="1.1"/>
<line x1="700.0" y1="70.0" x2="336.3" y2="780.0" stroke="#3f3f46" stroke-width="1.1"/>
<line x1="700.0" y1="70.0" x2="1113.6" y2="497.1" stroke="#3f3f46" stroke-width="1.1"/>
<line x1="1113.6" y1="497.1" x2="1133.0" y2="320.0" stroke="#3f3f46" stroke-width="1.1"/>
<line x1="1113.6" y1="497.1" x2="821.2" y2="640.0" stroke="#3f3f46" stroke-width="1.1"/>
<line x1="1113.6" y1="497.1" x2="633.5" y2="839.9" stroke="#3f3f46" stroke-width="1.1"/>
<line x1="1113.6" y1="497.1" x2="700.0" y2="70.0" stroke="#3f3f46" stroke-width="1.1"/>
<line x1="843.6" y1="964.7" x2="700.0" y2="70.0" stroke="#3f3f46" stroke-width="1.1"/>
<line x1="843.6" y1="964.7" x2="441.9" y2="538.7" stroke="#3f3f46" stroke-width="1.1"/>
<line x1="843.6" y1="964.7" x2="1148.6" y2="829.0" stroke="#3f3f46" stroke-width="1.1"/>
<line x1="550.2" y1="981.6" x2="1133.0" y2="820.0" stroke="#3f3f46" stroke-width="1.1"/>
<line x1="550.2" y1="981.6" x2="700.0" y2="310.0" stroke="#3f3f46" stroke-width="1.1"/>
<line x1="336.3" y1="780.0" x2="959.0" y2="1018.6" stroke="#3f3f46" stroke-width="1.1"/>
<line x1="336.3" y1="780.0" x2="633.5" y2="839.9" stroke="#3f3f46" stroke-width="1.1"/>
<line x1="336.3" y1="780.0" x2="471.2" y2="412.1" stroke="#3f3f46" stroke-width="1.1"/>
<line x1="336.3" y1="780.0" x2="700.0" y2="70.0" stroke="#3f3f46" stroke-width="1.1"/>
<line x1="1079.3" y1="789.0" x2="1218.0" y2="570.0" stroke="#3f3f46" stroke-width="1.1"/>
<line x1="1079.3" y1="789.0" x2="976.0" y2="536.5" stroke="#3f3f46" stroke-width="1.1"/>
<line x1="1079.3" y1="789.0" x2="821.2" y2="640.0" stroke="#3f3f46" stroke-width="1.1"/>
<line x1="981.5" y1="234.5" x2="959.0" y2="121.4" stroke="#3f3f46" stroke-width="1.1"/>
<line x1="981.5" y1="234.5" x2="762.2" y2="822.4" stroke="#3f3f46" stroke-width="1.1"/>
<line x1="981.5" y1="234.5" x2="914.0" y2="422.3" stroke="#3f3f46" stroke-width="1.1"/>
<line x1="268.7" y1="493.9" x2="441.0" y2="1018.6" stroke="#3f3f46" stroke-width="1.1"/>
<line x1="268.7" y1="493.9" x2="829.2" y2="323.8" stroke="#3f3f46" stroke-width="1.1"/>
<line x1="268.7" y1="493.9" x2="884.3" y2="778.1" stroke="#3f3f46" stroke-width="1.1"/>
<line x1="268.7" y1="493.9" x2="267.0" y2="820.0" stroke="#3f3f46" stroke-width="1.1"/>
<line x1="700.0" y1="150.0" x2="700.0" y2="1070.0" stroke="#3f3f46" stroke-width="1.1"/>
<line x1="700.0" y1="150.0" x2="440.1" y2="668.6" stroke="#3f3f46" stroke-width="1.1"/>
<line x1="700.0" y1="150.0" x2="527.6" y2="764.6" stroke="#3f3f46" stroke-width="1.1"/>
<line x1="700.0" y1="150.0" x2="579.2" y2="339.8" stroke="#3f3f46" stroke-width="1.1"/>
<line x1="430.0" y1="248.3" x2="267.0" y2="820.0" stroke="#3f3f46" stroke-width="1.1"/>
<line x1="430.0" y1="248.3" x2="821.2" y2="640.0" stroke="#3f3f46" stroke-width="1.1"/>
<line x1="430.0" y1="248.3" x2="579.2" y2="339.8" stroke="#3f3f46" stroke-width="1.1"/>
<circle cx="342.0" cy="570.0" r="6" fill="#14b8a6"/>
<text x="352.0" y="574.0" fill="#d6d3d1" font-family="ui-sans-serif,system-ui,sans-serif" font-size="11">maps</text>
<circle cx="267.0" cy="320.0" r="6" fill="#94a3b8"/>
<text x="277.0" y="324.0" fill="#d6d3d1" font-family="ui-sans-serif,system-ui,sans-serif" font-size="11">decisions</text>
<circle cx="441.0" cy="121.4" r="6" fill="#94a3b8"/>
<text x="451.0" y="125.4" fill="#d6d3d1" font-family="ui-sans-serif,system-ui,sans-serif" font-size="11">wiki</text>
<circle cx="700.0" cy="570.0" r="9" fill="#d4af37"/>
<text x="710.0" y="574.0" fill="#d6d3d1" font-family="ui-sans-serif,system-ui,sans-serif" font-size="11">Home</text>
<circle cx="182.0" cy="570.0" r="6" fill="#94a3b8"/>
<text x="192.0" y="574.0" fill="#d6d3d1" font-family="ui-sans-serif,system-ui,sans-serif" font-size="11">MEMORY</text>
<circle cx="390.0" cy="391.0" r="6" fill="#eb6b54"/>
<text x="400.0" y="395.0" fill="#d6d3d1" font-family="ui-sans-serif,system-ui,sans-serif" font-size="11">ship</text>
<circle cx="1109.5" cy="663.5" r="6" fill="#3b82f6"/>
<text x="1119.5" y="667.5" fill="#d6d3d1" font-family="ui-sans-serif,system-ui,sans-serif" font-size="11">hunt</text>
<circle cx="700.0" cy="230.0" r="6" fill="#eb6b54"/>
<text x="710.0" y="234.0" fill="#d6d3d1" font-family="ui-sans-serif,system-ui,sans-serif" font-size="11">angles</text>
<circle cx="700.0" cy="928.0" r="6" fill="#eb6b54"/>
<text x="710.0" y="932.0" fill="#d6d3d1" font-family="ui-sans-serif,system-ui,sans-serif" font-size="11">drafts</text>
<circle cx="994.4" cy="740.0" r="6" fill="#eb6b54"/>
<text x="1004.4" y="744.0" fill="#d6d3d1" font-family="ui-sans-serif,system-ui,sans-serif" font-size="11">digests</text>
<circle cx="1010.0" cy="391.0" r="6" fill="#eb6b54"/>
<text x="1020.0" y="395.0" fill="#d6d3d1" font-family="ui-sans-serif,system-ui,sans-serif" font-size="11">builds</text>
<circle cx="890.0" cy="964.6" r="6" fill="#3b82f6"/>
<text x="900.0" y="968.6" fill="#d6d3d1" font-family="ui-sans-serif,system-ui,sans-serif" font-size="11">inbox</text>
<circle cx="273.0" cy="667.5" r="6" fill="#3b82f6"/>
<text x="283.0" y="671.5" fill="#d6d3d1" font-family="ui-sans-serif,system-ui,sans-serif" font-size="11">reddit</text>
<circle cx="517.8" cy="948.4" r="6" fill="#3b82f6"/>
<text x="527.8" y="952.4" fill="#d6d3d1" font-family="ui-sans-serif,system-ui,sans-serif" font-size="11">product-hunt</text>
<circle cx="700.0" cy="150.0" r="6" fill="#3b82f6"/>
<text x="710.0" y="154.0" fill="#d6d3d1" font-family="ui-sans-serif,system-ui,sans-serif" font-size="11">github</text>
<circle cx="371.6" cy="308.1" r="6" fill="#3b82f6"/>
<text x="381.6" y="312.1" fill="#d6d3d1" font-family="ui-sans-serif,system-ui,sans-serif" font-size="11">twitter</text>
<circle cx="1042.4" cy="296.9" r="6" fill="#3b82f6"/>
<text x="1052.4" y="300.9" fill="#d6d3d1" font-family="ui-sans-serif,system-ui,sans-serif" font-size="11">hacker-news</text>
<circle cx="405.6" cy="740.0" r="6" fill="#eb6b54"/>
<text x="415.6" y="744.0" fill="#d6d3d1" font-family="ui-sans-serif,system-ui,sans-serif" font-size="11">ingest-brief-2026-08-23</text>
<circle cx="527.6" cy="764.6" r="6" fill="#d4af37"/>
<text x="537.6" y="768.6" fill="#d6d3d1" font-family="ui-sans-serif,system-ui,sans-serif" font-size="11">memory-ablation</text>
<circle cx="700.0" cy="728.0" r="9" fill="#d4af37"/>
<text x="710.0" y="732.0" fill="#d6d3d1" font-family="ui-sans-serif,system-ui,sans-serif" font-size="11">how-it-works</text>
<circle cx="441.9" cy="538.7" r="6" fill="#d4af37"/>
<text x="451.9" y="542.7" fill="#d6d3d1" font-family="ui-sans-serif,system-ui,sans-serif" font-size="11">self-verification</text>
<circle cx="943.1" cy="662.2" r="6" fill="#d4af37"/>
<text x="953.1" y="666.2" fill="#d6d3d1" font-family="ui-sans-serif,system-ui,sans-serif" font-size="11">graph</text>
<circle cx="884.3" cy="778.1" r="6" fill="#d4af37"/>
<text x="894.3" y="782.1" fill="#d6d3d1" font-family="ui-sans-serif,system-ui,sans-serif" font-size="11">harness-routing</text>
<circle cx="563.2" cy="491.0" r="9" fill="#d4af37"/>
<text x="573.2" y="495.0" fill="#d6d3d1" font-family="ui-sans-serif,system-ui,sans-serif" font-size="11">log</text>
<circle cx="440.1" cy="668.6" r="6" fill="#d4af37"/>
<text x="450.1" y="672.6" fill="#d6d3d1" font-family="ui-sans-serif,system-ui,sans-serif" font-size="11">memory-engineering</text>
<circle cx="762.2" cy="822.4" r="6" fill="#d4af37"/>
<text x="772.2" y="826.4" fill="#d6d3d1" font-family="ui-sans-serif,system-ui,sans-serif" font-size="11">hunt-ship-loop</text>
<circle cx="633.5" cy="839.9" r="6" fill="#d4af37"/>
<text x="643.5" y="843.9" fill="#d6d3d1" font-family="ui-sans-serif,system-ui,sans-serif" font-size="11">llm-wiki</text>
<circle cx="471.2" cy="412.1" r="6" fill="#d4af37"/>
<text x="481.2" y="416.1" fill="#d6d3d1" font-family="ui-sans-serif,system-ui,sans-serif" font-size="11">tokens-as-capital</text>
<circle cx="578.8" cy="640.0" r="9" fill="#d4af37"/>
<text x="588.8" y="644.0" fill="#d6d3d1" font-family="ui-sans-serif,system-ui,sans-serif" font-size="11">index</text>
<circle cx="829.2" cy="323.8" r="6" fill="#d4af37"/>
<text x="839.2" y="327.8" fill="#d6d3d1" font-family="ui-sans-serif,system-ui,sans-serif" font-size="11">audited-task-contract</text>
<circle cx="700.0" cy="310.0" r="6" fill="#d4af37"/>
<text x="710.0" y="314.0" fill="#d6d3d1" font-family="ui-sans-serif,system-ui,sans-serif" font-size="11">anti-slop</text>
<circle cx="976.0" cy="536.5" r="6" fill="#d4af37"/>
<text x="986.0" y="540.5" fill="#d6d3d1" font-family="ui-sans-serif,system-ui,sans-serif" font-size="11">entropy-gate</text>
<circle cx="914.0" cy="422.3" r="6" fill="#d4af37"/>
<text x="924.0" y="426.3" fill="#d6d3d1" font-family="ui-sans-serif,system-ui,sans-serif" font-size="11">context-graph</text>
<circle cx="579.2" cy="339.8" r="6" fill="#d4af37"/>
<text x="589.2" y="343.8" fill="#d6d3d1" font-family="ui-sans-serif,system-ui,sans-serif" font-size="11">verifiable-instructions</text>
<circle cx="836.8" cy="491.0" r="9" fill="#d4af37"/>
<text x="846.8" y="495.0" fill="#d6d3d1" font-family="ui-sans-serif,system-ui,sans-serif" font-size="11">agent-operating-system</text>
<circle cx="700.0" cy="430.0" r="9" fill="#d4af37"/>
<text x="710.0" y="434.0" fill="#d6d3d1" font-family="ui-sans-serif,system-ui,sans-serif" font-size="11">Today</text>
<circle cx="821.2" cy="640.0" r="9" fill="#d4af37"/>
<text x="831.2" y="644.0" fill="#d6d3d1" font-family="ui-sans-serif,system-ui,sans-serif" font-size="11">contradictions</text>
<circle cx="700.0" cy="230.0" r="6" fill="#14b8a6"/>
<text x="710.0" y="234.0" fill="#d6d3d1" font-family="ui-sans-serif,system-ui,sans-serif" font-size="11">Hooks</text>
<circle cx="1058.0" cy="570.0" r="6" fill="#14b8a6"/>
<text x="1068.0" y="574.0" fill="#d6d3d1" font-family="ui-sans-serif,system-ui,sans-serif" font-size="11">Jarvis</text>
<circle cx="700.0" cy="910.0" r="6" fill="#14b8a6"/>
<text x="710.0" y="914.0" fill="#d6d3d1" font-family="ui-sans-serif,system-ui,sans-serif" font-size="11">TELOS</text>
<circle cx="959.0" cy="1018.6" r="6" fill="#94a3b8"/>
<text x="969.0" y="1022.6" fill="#d6d3d1" font-family="ui-sans-serif,system-ui,sans-serif" font-size="11">2026-08-21-papa-couch-compiler</text>
<circle cx="700.0" cy="70.0" r="6" fill="#94a3b8"/>
<text x="710.0" y="74.0" fill="#d6d3d1" font-family="ui-sans-serif,system-ui,sans-serif" font-size="11">2026-08-17-jacky-self-verification</text>
<circle cx="1218.0" cy="570.0" r="6" fill="#94a3b8"/>
<text x="1228.0" y="574.0" fill="#d6d3d1" font-family="ui-sans-serif,system-ui,sans-serif" font-size="11">2026-08-21-hitu-entropy-engineering</text>
<circle cx="1133.0" cy="820.0" r="6" fill="#94a3b8"/>
<text x="1143.0" y="824.0" fill="#d6d3d1" font-family="ui-sans-serif,system-ui,sans-serif" font-size="11">2026-08-21-juampi-anti-slop-rank</text>
<circle cx="1133.0" cy="320.0" r="6" fill="#94a3b8"/>
<text x="1143.0" y="324.0" fill="#d6d3d1" font-family="ui-sans-serif,system-ui,sans-serif" font-size="11">2026-08-21-bober-folder-workflow</text>
<circle cx="959.0" cy="121.4" r="6" fill="#94a3b8"/>
<text x="969.0" y="125.4" fill="#d6d3d1" font-family="ui-sans-serif,system-ui,sans-serif" font-size="11">2026-08-20-avid-obsidian-agent-team</text>
<circle cx="700.0" cy="1070.0" r="6" fill="#94a3b8"/>
<text x="710.0" y="1074.0" fill="#d6d3d1" font-family="ui-sans-serif,system-ui,sans-serif" font-size="11">2026-08-22-0xcodio-memory-ablation</text>
<circle cx="441.0" cy="1018.6" r="6" fill="#94a3b8"/>
<text x="451.0" y="1022.6" fill="#d6d3d1" font-family="ui-sans-serif,system-ui,sans-serif" font-size="11">2026-08-22-rohit-harness-router</text>
<circle cx="267.0" cy="820.0" r="6" fill="#94a3b8"/>
<text x="277.0" y="824.0" fill="#d6d3d1" font-family="ui-sans-serif,system-ui,sans-serif" font-size="11">2026-08-22-voxyz-verifiable-instructions</text>
<circle cx="267.0" cy="820.0" r="6" fill="#22c55e"/>
<text x="277.0" y="824.0" fill="#d6d3d1" font-family="ui-sans-serif,system-ui,sans-serif" font-size="11">rohit</text>
<circle cx="1148.6" cy="829.0" r="6" fill="#22c55e"/>
<text x="1158.6" y="833.0" fill="#d6d3d1" font-family="ui-sans-serif,system-ui,sans-serif" font-size="11">jacky-kwok</text>
<circle cx="700.0" cy="70.0" r="6" fill="#22c55e"/>
<text x="710.0" y="74.0" fill="#d6d3d1" font-family="ui-sans-serif,system-ui,sans-serif" font-size="11">andrej-karpathy</text>
<circle cx="1113.6" cy="497.1" r="6" fill="#3b82f6"/>
<text x="1123.6" y="501.1" fill="#d6d3d1" font-family="ui-sans-serif,system-ui,sans-serif" font-size="11">src-bober-folder-workflow</text>
<circle cx="843.6" cy="964.7" r="6" fill="#3b82f6"/>
<text x="853.6" y="968.7" fill="#d6d3d1" font-family="ui-sans-serif,system-ui,sans-serif" font-size="11">src-jacky-self-verification</text>
<circle cx="550.2" cy="981.6" r="6" fill="#3b82f6"/>
<text x="560.2" y="985.6" fill="#d6d3d1" font-family="ui-sans-serif,system-ui,sans-serif" font-size="11">src-juampi-anti-slop-rank</text>
<circle cx="336.3" cy="780.0" r="6" fill="#3b82f6"/>
<text x="346.3" y="784.0" fill="#d6d3d1" font-family="ui-sans-serif,system-ui,sans-serif" font-size="11">src-papa-couch-compiler</text>
<circle cx="1079.3" cy="789.0" r="6" fill="#3b82f6"/>
<text x="1089.3" y="793.0" fill="#d6d3d1" font-family="ui-sans-serif,system-ui,sans-serif" font-size="11">src-hitu-entropy-engineering</text>
<circle cx="981.5" cy="234.5" r="6" fill="#3b82f6"/>
<text x="991.5" y="238.5" fill="#d6d3d1" font-family="ui-sans-serif,system-ui,sans-serif" font-size="11">src-avid-obsidian-agent-team</text>
<circle cx="268.7" cy="493.9" r="6" fill="#3b82f6"/>
<text x="278.7" y="497.9" fill="#d6d3d1" font-family="ui-sans-serif,system-ui,sans-serif" font-size="11">src-rohit-harness-router</text>
<circle cx="700.0" cy="150.0" r="6" fill="#3b82f6"/>
<text x="710.0" y="154.0" fill="#d6d3d1" font-family="ui-sans-serif,system-ui,sans-serif" font-size="11">src-0xcodio-memory-ablation</text>
<circle cx="430.0" cy="248.3" r="6" fill="#3b82f6"/>
<text x="440.0" y="252.3" fill="#d6d3d1" font-family="ui-sans-serif,system-ui,sans-serif" font-size="11">src-voxyz-verifiable-instructions</text>
</svg>