<svg xmlns="http://www.w3.org/2000/svg" viewBox="0 0 1400 1100" width="1400" height="1100">
<rect width="100%" height="100%" fill="#0f1115"/>
<text x="40" y="48" fill="#e7e5e4" font-family="ui-sans-serif,system-ui,sans-serif" font-size="22">Second brain · Obsidian graph</text>
<text x="40" y="74" fill="#a8a29e" font-family="ui-sans-serif,system-ui,sans-serif" font-size="13">gold wiki · teal maps · blue hunt/twitter · green people · coral ship</text>
<line x1="342.0" y1="570.0" x2="1058.0" y2="570.0" stroke="#3f3f46" stroke-width="1.1"/>
<line x1="342.0" y1="570.0" x2="700.0" y2="230.0" stroke="#3f3f46" stroke-width="1.1"/>
<line x1="342.0" y1="570.0" x2="700.0" y2="910.0" stroke="#3f3f46" stroke-width="1.1"/>
<line x1="267.0" y1="320.0" x2="536.6" y2="794.9" stroke="#3f3f46" stroke-width="1.1"/>
<line x1="267.0" y1="320.0" x2="493.4" y2="384.0" stroke="#3f3f46" stroke-width="1.1"/>
<line x1="267.0" y1="320.0" x2="594.2" y2="332.5" stroke="#3f3f46" stroke-width="1.1"/>
<line x1="267.0" y1="320.0" x2="893.2" y2="396.0" stroke="#3f3f46" stroke-width="1.1"/>
<line x1="267.0" y1="320.0" x2="474.8" y2="700.0" stroke="#3f3f46" stroke-width="1.1"/>
<line x1="267.0" y1="320.0" x2="940.8" y2="709.0" stroke="#3f3f46" stroke-width="1.1"/>
<line x1="267.0" y1="320.0" x2="645.9" y2="824.3" stroke="#3f3f46" stroke-width="1.1"/>
<line x1="267.0" y1="320.0" x2="813.1" y2="316.0" stroke="#3f3f46" stroke-width="1.1"/>
<line x1="267.0" y1="320.0" x2="936.8" y2="201.5" stroke="#3f3f46" stroke-width="1.1"/>
<line x1="267.0" y1="320.0" x2="700.0" y2="310.0" stroke="#3f3f46" stroke-width="1.1"/>
<line x1="267.0" y1="320.0" x2="958.6" y2="597.2" stroke="#3f3f46" stroke-width="1.1"/>
<line x1="267.0" y1="320.0" x2="1017.4" y2="845.0" stroke="#3f3f46" stroke-width="1.1"/>
<line x1="441.0" y1="121.4" x2="578.8" y2="640.0" stroke="#3f3f46" stroke-width="1.1"/>
<line x1="441.0" y1="121.4" x2="700.0" y2="728.0" stroke="#3f3f46" stroke-width="1.1"/>
<line x1="441.0" y1="121.4" x2="836.8" y2="491.0" stroke="#3f3f46" stroke-width="1.1"/>
<line x1="700.0" y1="570.0" x2="441.0" y2="121.4" stroke="#3f3f46" stroke-width="1.1"/>
<line x1="700.0" y1="570.0" x2="342.0" y2="570.0" stroke="#3f3f46" stroke-width="1.1"/>
<line x1="700.0" y1="570.0" x2="1009.7" y2="879.7" stroke="#3f3f46" stroke-width="1.1"/>
<line x1="700.0" y1="570.0" x2="390.3" y2="260.3" stroke="#3f3f46" stroke-width="1.1"/>
<line x1="700.0" y1="570.0" x2="700.0" y2="150.0" stroke="#3f3f46" stroke-width="1.1"/>
<line x1="700.0" y1="570.0" x2="700.0" y2="70.0" stroke="#3f3f46" stroke-width="1.1"/>
<line x1="700.0" y1="570.0" x2="1148.6" y2="829.0" stroke="#3f3f46" stroke-width="1.1"/>
<line x1="700.0" y1="570.0" x2="267.0" y2="820.0" stroke="#3f3f46" stroke-width="1.1"/>
<line x1="700.0" y1="570.0" x2="446.9" y2="316.9" stroke="#3f3f46" stroke-width="1.1"/>
<line x1="700.0" y1="570.0" x2="852.8" y2="780.3" stroke="#3f3f46" stroke-width="1.1"/>
<line x1="700.0" y1="570.0" x2="700.0" y2="430.0" stroke="#3f3f46" stroke-width="1.1"/>
<line x1="700.0" y1="570.0" x2="578.8" y2="640.0" stroke="#3f3f46" stroke-width="1.1"/>
<line x1="700.0" y1="570.0" x2="836.8" y2="491.0" stroke="#3f3f46" stroke-width="1.1"/>
<line x1="700.0" y1="570.0" x2="821.2" y2="640.0" stroke="#3f3f46" stroke-width="1.1"/>
<line x1="700.0" y1="570.0" x2="1058.0" y2="570.0" stroke="#3f3f46" stroke-width="1.1"/>
<line x1="700.0" y1="570.0" x2="700.0" y2="910.0" stroke="#3f3f46" stroke-width="1.1"/>
<line x1="700.0" y1="570.0" x2="700.0" y2="990.0" stroke="#3f3f46" stroke-width="1.1"/>
<line x1="700.0" y1="570.0" x2="360.0" y2="570.0" stroke="#3f3f46" stroke-width="1.1"/>
<line x1="700.0" y1="570.0" x2="446.9" y2="823.1" stroke="#3f3f46" stroke-width="1.1"/>
<line x1="182.0" y1="570.0" x2="474.8" y2="700.0" stroke="#3f3f46" stroke-width="1.1"/>
<line x1="182.0" y1="570.0" x2="700.0" y2="310.0" stroke="#3f3f46" stroke-width="1.1"/>
<line x1="182.0" y1="570.0" x2="958.6" y2="597.2" stroke="#3f3f46" stroke-width="1.1"/>
<line x1="446.9" y1="316.9" x2="1040.0" y2="570.0" stroke="#3f3f46" stroke-width="1.1"/>
<line x1="446.9" y1="316.9" x2="953.1" y2="823.1" stroke="#3f3f46" stroke-width="1.1"/>
<line x1="446.9" y1="316.9" x2="700.0" y2="230.0" stroke="#3f3f46" stroke-width="1.1"/>
<line x1="446.9" y1="316.9" x2="953.1" y2="316.9" stroke="#3f3f46" stroke-width="1.1"/>
<line x1="446.9" y1="316.9" x2="700.0" y2="910.0" stroke="#3f3f46" stroke-width="1.1"/>
<line x1="1009.7" y1="879.7" x2="645.9" y2="824.3" stroke="#3f3f46" stroke-width="1.1"/>
<line x1="1009.7" y1="879.7" x2="390.3" y2="260.3" stroke="#3f3f46" stroke-width="1.1"/>
<line x1="1009.7" y1="879.7" x2="700.0" y2="150.0" stroke="#3f3f46" stroke-width="1.1"/>
<line x1="1009.7" y1="879.7" x2="1009.7" y2="260.3" stroke="#3f3f46" stroke-width="1.1"/>
<line x1="1009.7" y1="879.7" x2="1120.0" y2="570.0" stroke="#3f3f46" stroke-width="1.1"/>
<line x1="1009.7" y1="879.7" x2="280.0" y2="570.0" stroke="#3f3f46" stroke-width="1.1"/>
<line x1="1009.7" y1="879.7" x2="390.3" y2="879.7" stroke="#3f3f46" stroke-width="1.1"/>
<line x1="1009.7" y1="879.7" x2="700.0" y2="990.0" stroke="#3f3f46" stroke-width="1.1"/>
<line x1="700.0" y1="230.0" x2="700.0" y2="230.0" stroke="#3f3f46" stroke-width="1.1"/>
<line x1="700.0" y1="230.0" x2="536.6" y2="794.9" stroke="#3f3f46" stroke-width="1.1"/>
<line x1="700.0" y1="230.0" x2="474.8" y2="700.0" stroke="#3f3f46" stroke-width="1.1"/>
<line x1="700.0" y1="230.0" x2="893.2" y2="396.0" stroke="#3f3f46" stroke-width="1.1"/>
<line x1="700.0" y1="230.0" x2="645.9" y2="824.3" stroke="#3f3f46" stroke-width="1.1"/>
<line x1="1040.0" y1="570.0" x2="360.0" y2="570.0" stroke="#3f3f46" stroke-width="1.1"/>
<line x1="1040.0" y1="570.0" x2="446.9" y2="823.1" stroke="#3f3f46" stroke-width="1.1"/>
<line x1="1040.0" y1="570.0" x2="700.0" y2="910.0" stroke="#3f3f46" stroke-width="1.1"/>
<line x1="1040.0" y1="570.0" x2="700.0" y2="430.0" stroke="#3f3f46" stroke-width="1.1"/>
<line x1="1009.7" y1="260.3" x2="536.6" y2="794.9" stroke="#3f3f46" stroke-width="1.1"/>
<line x1="1009.7" y1="260.3" x2="452.7" y2="489.7" stroke="#3f3f46" stroke-width="1.1"/>
<line x1="390.3" y1="260.3" x2="645.9" y2="824.3" stroke="#3f3f46" stroke-width="1.1"/>
<line x1="390.3" y1="260.3" x2="1133.5" y2="632.3" stroke="#3f3f46" stroke-width="1.1"/>
<line x1="390.3" y1="260.3" x2="700.0" y2="150.0" stroke="#3f3f46" stroke-width="1.1"/>
<line x1="390.3" y1="260.3" x2="301.6" y2="388.0" stroke="#3f3f46" stroke-width="1.1"/>
<line x1="390.3" y1="260.3" x2="472.9" y2="216.7" stroke="#3f3f46" stroke-width="1.1"/>
<line x1="390.3" y1="260.3" x2="284.3" y2="629.8" stroke="#3f3f46" stroke-width="1.1"/>
<line x1="390.3" y1="260.3" x2="823.4" y2="990.3" stroke="#3f3f46" stroke-width="1.1"/>
<line x1="390.3" y1="260.3" x2="1082.0" y2="395.5" stroke="#3f3f46" stroke-width="1.1"/>
<line x1="390.3" y1="260.3" x2="369.0" y2="856.8" stroke="#3f3f46" stroke-width="1.1"/>
<line x1="390.3" y1="260.3" x2="936.8" y2="201.5" stroke="#3f3f46" stroke-width="1.1"/>
<line x1="390.3" y1="260.3" x2="581.7" y2="973.0" stroke="#3f3f46" stroke-width="1.1"/>
<line x1="700.0" y1="150.0" x2="645.9" y2="824.3" stroke="#3f3f46" stroke-width="1.1"/>
<line x1="700.0" y1="150.0" x2="1017.4" y2="845.0" stroke="#3f3f46" stroke-width="1.1"/>
<line x1="700.0" y1="910.0" x2="836.8" y2="491.0" stroke="#3f3f46" stroke-width="1.1"/>
<line x1="700.0" y1="910.0" x2="821.2" y2="640.0" stroke="#3f3f46" stroke-width="1.1"/>
<line x1="360.0" y1="570.0" x2="958.6" y2="597.2" stroke="#3f3f46" stroke-width="1.1"/>
<line x1="360.0" y1="570.0" x2="1017.4" y2="845.0" stroke="#3f3f46" stroke-width="1.1"/>
<line x1="360.0" y1="570.0" x2="700.0" y2="150.0" stroke="#3f3f46" stroke-width="1.1"/>
<line x1="446.9" y1="823.1" x2="700.0" y2="310.0" stroke="#3f3f46" stroke-width="1.1"/>
<line x1="446.9" y1="823.1" x2="594.2" y2="332.5" stroke="#3f3f46" stroke-width="1.1"/>
<line x1="446.9" y1="823.1" x2="964.4" y2="484.1" stroke="#3f3f46" stroke-width="1.1"/>
<line x1="446.9" y1="823.1" x2="493.4" y2="384.0" stroke="#3f3f46" stroke-width="1.1"/>
<line x1="446.9" y1="823.1" x2="536.6" y2="794.9" stroke="#3f3f46" stroke-width="1.1"/>
<line x1="446.9" y1="823.1" x2="452.7" y2="489.7" stroke="#3f3f46" stroke-width="1.1"/>
<line x1="446.9" y1="823.1" x2="1133.5" y2="632.3" stroke="#3f3f46" stroke-width="1.1"/>
<line x1="446.9" y1="823.1" x2="821.2" y2="640.0" stroke="#3f3f46" stroke-width="1.1"/>
<line x1="474.8" y1="700.0" x2="700.0" y2="150.0" stroke="#3f3f46" stroke-width="1.1"/>
<line x1="474.8" y1="700.0" x2="423.5" y2="599.1" stroke="#3f3f46" stroke-width="1.1"/>
<line x1="474.8" y1="700.0" x2="594.2" y2="332.5" stroke="#3f3f46" stroke-width="1.1"/>
<line x1="700.0" y1="728.0" x2="536.6" y2="794.9" stroke="#3f3f46" stroke-width="1.1"/>
<line x1="700.0" y1="728.0" x2="700.0" y2="570.0" stroke="#3f3f46" stroke-width="1.1"/>
<line x1="700.0" y1="728.0" x2="852.8" y2="780.3" stroke="#3f3f46" stroke-width="1.1"/>
<line x1="700.0" y1="728.0" x2="578.8" y2="640.0" stroke="#3f3f46" stroke-width="1.1"/>
<line x1="700.0" y1="728.0" x2="821.2" y2="640.0" stroke="#3f3f46" stroke-width="1.1"/>
<line x1="700.0" y1="728.0" x2="700.0" y2="310.0" stroke="#3f3f46" stroke-width="1.1"/>
<line x1="700.0" y1="728.0" x2="493.4" y2="384.0" stroke="#3f3f46" stroke-width="1.1"/>
<line x1="700.0" y1="728.0" x2="964.4" y2="484.1" stroke="#3f3f46" stroke-width="1.1"/>
<line x1="700.0" y1="728.0" x2="182.0" y2="570.0" stroke="#3f3f46" stroke-width="1.1"/>
<line x1="700.0" y1="728.0" x2="474.8" y2="700.0" stroke="#3f3f46" stroke-width="1.1"/>
<line x1="700.0" y1="728.0" x2="267.0" y2="320.0" stroke="#3f3f46" stroke-width="1.1"/>
<line x1="700.0" y1="728.0" x2="594.2" y2="332.5" stroke="#3f3f46" stroke-width="1.1"/>
<line x1="700.0" y1="728.0" x2="958.6" y2="597.2" stroke="#3f3f46" stroke-width="1.1"/>
<line x1="700.0" y1="728.0" x2="893.2" y2="396.0" stroke="#3f3f46" stroke-width="1.1"/>
<line x1="700.0" y1="728.0" x2="940.8" y2="709.0" stroke="#3f3f46" stroke-width="1.1"/>
<line x1="452.7" y1="489.7" x2="581.7" y2="973.0" stroke="#3f3f46" stroke-width="1.1"/>
<line x1="452.7" y1="489.7" x2="1148.6" y2="829.0" stroke="#3f3f46" stroke-width="1.1"/>
<line x1="452.7" y1="489.7" x2="1133.5" y2="632.3" stroke="#3f3f46" stroke-width="1.1"/>
<line x1="452.7" y1="489.7" x2="700.0" y2="310.0" stroke="#3f3f46" stroke-width="1.1"/>
<line x1="452.7" y1="489.7" x2="594.2" y2="332.5" stroke="#3f3f46" stroke-width="1.1"/>
<line x1="452.7" y1="489.7" x2="940.8" y2="709.0" stroke="#3f3f46" stroke-width="1.1"/>
<line x1="757.8" y1="841.9" x2="301.6" y2="388.0" stroke="#3f3f46" stroke-width="1.1"/>
<line x1="757.8" y1="841.9" x2="893.2" y2="396.0" stroke="#3f3f46" stroke-width="1.1"/>
<line x1="757.8" y1="841.9" x2="267.0" y2="820.0" stroke="#3f3f46" stroke-width="1.1"/>
<line x1="563.2" y1="491.0" x2="1017.4" y2="845.0" stroke="#3f3f46" stroke-width="1.1"/>
<line x1="563.2" y1="491.0" x2="958.6" y2="597.2" stroke="#3f3f46" stroke-width="1.1"/>
<line x1="563.2" y1="491.0" x2="1133.5" y2="632.3" stroke="#3f3f46" stroke-width="1.1"/>
<line x1="563.2" y1="491.0" x2="700.0" y2="310.0" stroke="#3f3f46" stroke-width="1.1"/>
<line x1="563.2" y1="491.0" x2="594.2" y2="332.5" stroke="#3f3f46" stroke-width="1.1"/>
<line x1="563.2" y1="491.0" x2="964.4" y2="484.1" stroke="#3f3f46" stroke-width="1.1"/>
<line x1="563.2" y1="491.0" x2="493.4" y2="384.0" stroke="#3f3f46" stroke-width="1.1"/>
<line x1="563.2" y1="491.0" x2="536.6" y2="794.9" stroke="#3f3f46" stroke-width="1.1"/>
<line x1="563.2" y1="491.0" x2="452.7" y2="489.7" stroke="#3f3f46" stroke-width="1.1"/>
<line x1="563.2" y1="491.0" x2="645.9" y2="824.3" stroke="#3f3f46" stroke-width="1.1"/>
<line x1="563.2" y1="491.0" x2="821.2" y2="640.0" stroke="#3f3f46" stroke-width="1.1"/>
<line x1="563.2" y1="491.0" x2="836.8" y2="491.0" stroke="#3f3f46" stroke-width="1.1"/>
<line x1="563.2" y1="491.0" x2="700.0" y2="728.0" stroke="#3f3f46" stroke-width="1.1"/>
<line x1="563.2" y1="491.0" x2="700.0" y2="570.0" stroke="#3f3f46" stroke-width="1.1"/>
<line x1="563.2" y1="491.0" x2="342.0" y2="570.0" stroke="#3f3f46" stroke-width="1.1"/>
<line x1="563.2" y1="491.0" x2="1009.7" y2="879.7" stroke="#3f3f46" stroke-width="1.1"/>
<line x1="563.2" y1="491.0" x2="446.9" y2="316.9" stroke="#3f3f46" stroke-width="1.1"/>
<line x1="563.2" y1="491.0" x2="423.5" y2="599.1" stroke="#3f3f46" stroke-width="1.1"/>
<line x1="563.2" y1="491.0" x2="474.8" y2="700.0" stroke="#3f3f46" stroke-width="1.1"/>
<line x1="563.2" y1="491.0" x2="893.2" y2="396.0" stroke="#3f3f46" stroke-width="1.1"/>
<line x1="563.2" y1="491.0" x2="757.8" y2="841.9" stroke="#3f3f46" stroke-width="1.1"/>
<line x1="563.2" y1="491.0" x2="940.8" y2="709.0" stroke="#3f3f46" stroke-width="1.1"/>
<line x1="563.2" y1="491.0" x2="813.1" y2="316.0" stroke="#3f3f46" stroke-width="1.1"/>
<line x1="563.2" y1="491.0" x2="700.0" y2="70.0" stroke="#3f3f46" stroke-width="1.1"/>
<line x1="563.2" y1="491.0" x2="1148.6" y2="829.0" stroke="#3f3f46" stroke-width="1.1"/>
<line x1="563.2" y1="491.0" x2="267.0" y2="820.0" stroke="#3f3f46" stroke-width="1.1"/>
<line x1="423.5" y1="599.1" x2="700.0" y2="150.0" stroke="#3f3f46" stroke-width="1.1"/>
<line x1="423.5" y1="599.1" x2="474.8" y2="700.0" stroke="#3f3f46" stroke-width="1.1"/>
<line x1="423.5" y1="599.1" x2="893.2" y2="396.0" stroke="#3f3f46" stroke-width="1.1"/>
<line x1="423.5" y1="599.1" x2="940.8" y2="709.0" stroke="#3f3f46" stroke-width="1.1"/>
<line x1="645.9" y1="824.3" x2="936.8" y2="201.5" stroke="#3f3f46" stroke-width="1.1"/>
<line x1="645.9" y1="824.3" x2="821.2" y2="640.0" stroke="#3f3f46" stroke-width="1.1"/>
<line x1="645.9" y1="824.3" x2="700.0" y2="310.0" stroke="#3f3f46" stroke-width="1.1"/>
<line x1="645.9" y1="824.3" x2="1009.7" y2="879.7" stroke="#3f3f46" stroke-width="1.1"/>
<line x1="645.9" y1="824.3" x2="446.9" y2="316.9" stroke="#3f3f46" stroke-width="1.1"/>
<line x1="645.9" y1="824.3" x2="342.0" y2="570.0" stroke="#3f3f46" stroke-width="1.1"/>
<line x1="645.9" y1="824.3" x2="536.6" y2="794.9" stroke="#3f3f46" stroke-width="1.1"/>
<line x1="645.9" y1="824.3" x2="964.4" y2="484.1" stroke="#3f3f46" stroke-width="1.1"/>
<line x1="536.6" y1="794.9" x2="578.8" y2="640.0" stroke="#3f3f46" stroke-width="1.1"/>
<line x1="536.6" y1="794.9" x2="1133.5" y2="632.3" stroke="#3f3f46" stroke-width="1.1"/>
<line x1="536.6" y1="794.9" x2="700.0" y2="310.0" stroke="#3f3f46" stroke-width="1.1"/>
<line x1="536.6" y1="794.9" x2="493.4" y2="384.0" stroke="#3f3f46" stroke-width="1.1"/>
<line x1="536.6" y1="794.9" x2="700.0" y2="70.0" stroke="#3f3f46" stroke-width="1.1"/>
<line x1="536.6" y1="794.9" x2="284.3" y2="629.8" stroke="#3f3f46" stroke-width="1.1"/>
<line x1="536.6" y1="794.9" x2="1082.0" y2="395.5" stroke="#3f3f46" stroke-width="1.1"/>
<line x1="536.6" y1="794.9" x2="700.0" y2="728.0" stroke="#3f3f46" stroke-width="1.1"/>
<line x1="493.4" y1="384.0" x2="284.3" y2="629.8" stroke="#3f3f46" stroke-width="1.1"/>
<line x1="493.4" y1="384.0" x2="1133.5" y2="632.3" stroke="#3f3f46" stroke-width="1.1"/>
<line x1="493.4" y1="384.0" x2="700.0" y2="310.0" stroke="#3f3f46" stroke-width="1.1"/>
<line x1="493.4" y1="384.0" x2="536.6" y2="794.9" stroke="#3f3f46" stroke-width="1.1"/>
<line x1="493.4" y1="384.0" x2="964.4" y2="484.1" stroke="#3f3f46" stroke-width="1.1"/>
<line x1="578.8" y1="640.0" x2="700.0" y2="570.0" stroke="#3f3f46" stroke-width="1.1"/>
<line x1="578.8" y1="640.0" x2="852.8" y2="780.3" stroke="#3f3f46" stroke-width="1.1"/>
<line x1="578.8" y1="640.0" x2="700.0" y2="728.0" stroke="#3f3f46" stroke-width="1.1"/>
<line x1="578.8" y1="640.0" x2="836.8" y2="491.0" stroke="#3f3f46" stroke-width="1.1"/>
<line x1="578.8" y1="640.0" x2="821.2" y2="640.0" stroke="#3f3f46" stroke-width="1.1"/>
<line x1="578.8" y1="640.0" x2="536.6" y2="794.9" stroke="#3f3f46" stroke-width="1.1"/>
<line x1="578.8" y1="640.0" x2="700.0" y2="310.0" stroke="#3f3f46" stroke-width="1.1"/>
<line x1="578.8" y1="640.0" x2="958.6" y2="597.2" stroke="#3f3f46" stroke-width="1.1"/>
<line x1="578.8" y1="640.0" x2="342.0" y2="570.0" stroke="#3f3f46" stroke-width="1.1"/>
<line x1="578.8" y1="640.0" x2="1009.7" y2="879.7" stroke="#3f3f46" stroke-width="1.1"/>
<line x1="578.8" y1="640.0" x2="446.9" y2="316.9" stroke="#3f3f46" stroke-width="1.1"/>
<line x1="578.8" y1="640.0" x2="493.4" y2="384.0" stroke="#3f3f46" stroke-width="1.1"/>
<line x1="578.8" y1="640.0" x2="423.5" y2="599.1" stroke="#3f3f46" stroke-width="1.1"/>
<line x1="578.8" y1="640.0" x2="474.8" y2="700.0" stroke="#3f3f46" stroke-width="1.1"/>
<line x1="578.8" y1="640.0" x2="594.2" y2="332.5" stroke="#3f3f46" stroke-width="1.1"/>
<line x1="578.8" y1="640.0" x2="893.2" y2="396.0" stroke="#3f3f46" stroke-width="1.1"/>
<line x1="578.8" y1="640.0" x2="757.8" y2="841.9" stroke="#3f3f46" stroke-width="1.1"/>
<line x1="578.8" y1="640.0" x2="940.8" y2="709.0" stroke="#3f3f46" stroke-width="1.1"/>
<line x1="578.8" y1="640.0" x2="452.7" y2="489.7" stroke="#3f3f46" stroke-width="1.1"/>
<line x1="578.8" y1="640.0" x2="813.1" y2="316.0" stroke="#3f3f46" stroke-width="1.1"/>
<line x1="578.8" y1="640.0" x2="645.9" y2="824.3" stroke="#3f3f46" stroke-width="1.1"/>
<line x1="578.8" y1="640.0" x2="964.4" y2="484.1" stroke="#3f3f46" stroke-width="1.1"/>
<line x1="578.8" y1="640.0" x2="700.0" y2="150.0" stroke="#3f3f46" stroke-width="1.1"/>
<line x1="578.8" y1="640.0" x2="301.6" y2="388.0" stroke="#3f3f46" stroke-width="1.1"/>
<line x1="578.8" y1="640.0" x2="472.9" y2="216.7" stroke="#3f3f46" stroke-width="1.1"/>
<line x1="578.8" y1="640.0" x2="284.3" y2="629.8" stroke="#3f3f46" stroke-width="1.1"/>
<line x1="578.8" y1="640.0" x2="823.4" y2="990.3" stroke="#3f3f46" stroke-width="1.1"/>
<line x1="578.8" y1="640.0" x2="581.7" y2="973.0" stroke="#3f3f46" stroke-width="1.1"/>
<line x1="578.8" y1="640.0" x2="1082.0" y2="395.5" stroke="#3f3f46" stroke-width="1.1"/>
<line x1="578.8" y1="640.0" x2="936.8" y2="201.5" stroke="#3f3f46" stroke-width="1.1"/>
<line x1="578.8" y1="640.0" x2="369.0" y2="856.8" stroke="#3f3f46" stroke-width="1.1"/>
<line x1="578.8" y1="640.0" x2="1133.5" y2="632.3" stroke="#3f3f46" stroke-width="1.1"/>
<line x1="578.8" y1="640.0" x2="1017.4" y2="845.0" stroke="#3f3f46" stroke-width="1.1"/>
<line x1="578.8" y1="640.0" x2="700.0" y2="70.0" stroke="#3f3f46" stroke-width="1.1"/>
<line x1="578.8" y1="640.0" x2="1148.6" y2="829.0" stroke="#3f3f46" stroke-width="1.1"/>
<line x1="578.8" y1="640.0" x2="267.0" y2="820.0" stroke="#3f3f46" stroke-width="1.1"/>
<line x1="578.8" y1="640.0" x2="182.0" y2="570.0" stroke="#3f3f46" stroke-width="1.1"/>
<line x1="578.8" y1="640.0" x2="267.0" y2="320.0" stroke="#3f3f46" stroke-width="1.1"/>
<line x1="893.2" y1="396.0" x2="301.6" y2="388.0" stroke="#3f3f46" stroke-width="1.1"/>
<line x1="893.2" y1="396.0" x2="757.8" y2="841.9" stroke="#3f3f46" stroke-width="1.1"/>
<line x1="893.2" y1="396.0" x2="940.8" y2="709.0" stroke="#3f3f46" stroke-width="1.1"/>
<line x1="893.2" y1="396.0" x2="423.5" y2="599.1" stroke="#3f3f46" stroke-width="1.1"/>
<line x1="813.1" y1="316.0" x2="369.0" y2="856.8" stroke="#3f3f46" stroke-width="1.1"/>
<line x1="813.1" y1="316.0" x2="594.2" y2="332.5" stroke="#3f3f46" stroke-width="1.1"/>
<line x1="940.8" y1="709.0" x2="823.4" y2="990.3" stroke="#3f3f46" stroke-width="1.1"/>
<line x1="940.8" y1="709.0" x2="821.2" y2="640.0" stroke="#3f3f46" stroke-width="1.1"/>
<line x1="940.8" y1="709.0" x2="893.2" y2="396.0" stroke="#3f3f46" stroke-width="1.1"/>
<line x1="940.8" y1="709.0" x2="452.7" y2="489.7" stroke="#3f3f46" stroke-width="1.1"/>
<line x1="940.8" y1="709.0" x2="423.5" y2="599.1" stroke="#3f3f46" stroke-width="1.1"/>
<line x1="964.4" y1="484.1" x2="936.8" y2="201.5" stroke="#3f3f46" stroke-width="1.1"/>
<line x1="964.4" y1="484.1" x2="1133.5" y2="632.3" stroke="#3f3f46" stroke-width="1.1"/>
<line x1="964.4" y1="484.1" x2="700.0" y2="310.0" stroke="#3f3f46" stroke-width="1.1"/>
<line x1="964.4" y1="484.1" x2="493.4" y2="384.0" stroke="#3f3f46" stroke-width="1.1"/>
<line x1="964.4" y1="484.1" x2="536.6" y2="794.9" stroke="#3f3f46" stroke-width="1.1"/>
<line x1="964.4" y1="484.1" x2="423.5" y2="599.1" stroke="#3f3f46" stroke-width="1.1"/>
<line x1="594.2" y1="332.5" x2="472.9" y2="216.7" stroke="#3f3f46" stroke-width="1.1"/>
<line x1="594.2" y1="332.5" x2="821.2" y2="640.0" stroke="#3f3f46" stroke-width="1.1"/>
<line x1="594.2" y1="332.5" x2="1133.5" y2="632.3" stroke="#3f3f46" stroke-width="1.1"/>
<line x1="594.2" y1="332.5" x2="700.0" y2="310.0" stroke="#3f3f46" stroke-width="1.1"/>
<line x1="594.2" y1="332.5" x2="474.8" y2="700.0" stroke="#3f3f46" stroke-width="1.1"/>
<line x1="594.2" y1="332.5" x2="452.7" y2="489.7" stroke="#3f3f46" stroke-width="1.1"/>
<line x1="836.8" y1="491.0" x2="536.6" y2="794.9" stroke="#3f3f46" stroke-width="1.1"/>
<line x1="836.8" y1="491.0" x2="493.4" y2="384.0" stroke="#3f3f46" stroke-width="1.1"/>
<line x1="836.8" y1="491.0" x2="700.0" y2="310.0" stroke="#3f3f46" stroke-width="1.1"/>
<line x1="836.8" y1="491.0" x2="423.5" y2="599.1" stroke="#3f3f46" stroke-width="1.1"/>
<line x1="836.8" y1="491.0" x2="474.8" y2="700.0" stroke="#3f3f46" stroke-width="1.1"/>
<line x1="836.8" y1="491.0" x2="893.2" y2="396.0" stroke="#3f3f46" stroke-width="1.1"/>
<line x1="836.8" y1="491.0" x2="757.8" y2="841.9" stroke="#3f3f46" stroke-width="1.1"/>
<line x1="836.8" y1="491.0" x2="940.8" y2="709.0" stroke="#3f3f46" stroke-width="1.1"/>
<line x1="836.8" y1="491.0" x2="594.2" y2="332.5" stroke="#3f3f46" stroke-width="1.1"/>
<line x1="836.8" y1="491.0" x2="452.7" y2="489.7" stroke="#3f3f46" stroke-width="1.1"/>
<line x1="836.8" y1="491.0" x2="813.1" y2="316.0" stroke="#3f3f46" stroke-width="1.1"/>
<line x1="836.8" y1="491.0" x2="645.9" y2="824.3" stroke="#3f3f46" stroke-width="1.1"/>
<line x1="836.8" y1="491.0" x2="821.2" y2="640.0" stroke="#3f3f46" stroke-width="1.1"/>
<line x1="836.8" y1="491.0" x2="284.3" y2="629.8" stroke="#3f3f46" stroke-width="1.1"/>
<line x1="836.8" y1="491.0" x2="700.0" y2="728.0" stroke="#3f3f46" stroke-width="1.1"/>
<line x1="836.8" y1="491.0" x2="578.8" y2="640.0" stroke="#3f3f46" stroke-width="1.1"/>
<line x1="700.0" y1="430.0" x2="958.6" y2="597.2" stroke="#3f3f46" stroke-width="1.1"/>
<line x1="700.0" y1="430.0" x2="821.2" y2="640.0" stroke="#3f3f46" stroke-width="1.1"/>
<line x1="700.0" y1="430.0" x2="360.0" y2="570.0" stroke="#3f3f46" stroke-width="1.1"/>
<line x1="700.0" y1="430.0" x2="700.0" y2="990.0" stroke="#3f3f46" stroke-width="1.1"/>
<line x1="821.2" y1="640.0" x2="1082.0" y2="395.5" stroke="#3f3f46" stroke-width="1.1"/>
<line x1="821.2" y1="640.0" x2="700.0" y2="70.0" stroke="#3f3f46" stroke-width="1.1"/>
<line x1="821.2" y1="640.0" x2="284.3" y2="629.8" stroke="#3f3f46" stroke-width="1.1"/>
<line x1="821.2" y1="640.0" x2="823.4" y2="990.3" stroke="#3f3f46" stroke-width="1.1"/>
<line x1="821.2" y1="640.0" x2="940.8" y2="709.0" stroke="#3f3f46" stroke-width="1.1"/>
<line x1="821.2" y1="640.0" x2="893.2" y2="396.0" stroke="#3f3f46" stroke-width="1.1"/>
<line x1="821.2" y1="640.0" x2="474.8" y2="700.0" stroke="#3f3f46" stroke-width="1.1"/>
<line x1="821.2" y1="640.0" x2="472.9" y2="216.7" stroke="#3f3f46" stroke-width="1.1"/>
<line x1="821.2" y1="640.0" x2="645.9" y2="824.3" stroke="#3f3f46" stroke-width="1.1"/>
<line x1="821.2" y1="640.0" x2="1133.5" y2="632.3" stroke="#3f3f46" stroke-width="1.1"/>
<line x1="821.2" y1="640.0" x2="594.2" y2="332.5" stroke="#3f3f46" stroke-width="1.1"/>
<line x1="821.2" y1="640.0" x2="700.0" y2="310.0" stroke="#3f3f46" stroke-width="1.1"/>
<line x1="821.2" y1="640.0" x2="1017.4" y2="845.0" stroke="#3f3f46" stroke-width="1.1"/>
<line x1="700.0" y1="310.0" x2="1133.5" y2="632.3" stroke="#3f3f46" stroke-width="1.1"/>
<line x1="700.0" y1="310.0" x2="821.2" y2="640.0" stroke="#3f3f46" stroke-width="1.1"/>
<line x1="700.0" y1="310.0" x2="594.2" y2="332.5" stroke="#3f3f46" stroke-width="1.1"/>
<line x1="700.0" y1="310.0" x2="964.4" y2="484.1" stroke="#3f3f46" stroke-width="1.1"/>
<line x1="700.0" y1="310.0" x2="493.4" y2="384.0" stroke="#3f3f46" stroke-width="1.1"/>
<line x1="700.0" y1="310.0" x2="536.6" y2="794.9" stroke="#3f3f46" stroke-width="1.1"/>
<line x1="700.0" y1="310.0" x2="452.7" y2="489.7" stroke="#3f3f46" stroke-width="1.1"/>
<line x1="700.0" y1="310.0" x2="645.9" y2="824.3" stroke="#3f3f46" stroke-width="1.1"/>
<line x1="958.6" y1="597.2" x2="1017.4" y2="845.0" stroke="#3f3f46" stroke-width="1.1"/>
<line x1="958.6" y1="597.2" x2="821.2" y2="640.0" stroke="#3f3f46" stroke-width="1.1"/>
<line x1="700.0" y1="230.0" x2="936.8" y2="201.5" stroke="#3f3f46" stroke-width="1.1"/>
<line x1="700.0" y1="230.0" x2="390.3" y2="260.3" stroke="#3f3f46" stroke-width="1.1"/>
<line x1="700.0" y1="230.0" x2="821.2" y2="640.0" stroke="#3f3f46" stroke-width="1.1"/>
<line x1="700.0" y1="230.0" x2="446.9" y2="316.9" stroke="#3f3f46" stroke-width="1.1"/>
<line x1="700.0" y1="230.0" x2="267.0" y2="320.0" stroke="#3f3f46" stroke-width="1.1"/>
<line x1="700.0" y1="230.0" x2="536.6" y2="794.9" stroke="#3f3f46" stroke-width="1.1"/>
<line x1="700.0" y1="230.0" x2="493.4" y2="384.0" stroke="#3f3f46" stroke-width="1.1"/>
<line x1="700.0" y1="230.0" x2="700.0" y2="310.0" stroke="#3f3f46" stroke-width="1.1"/>
<line x1="1058.0" y1="570.0" x2="700.0" y2="570.0" stroke="#3f3f46" stroke-width="1.1"/>
<line x1="1058.0" y1="570.0" x2="578.8" y2="640.0" stroke="#3f3f46" stroke-width="1.1"/>
<line x1="1058.0" y1="570.0" x2="182.0" y2="570.0" stroke="#3f3f46" stroke-width="1.1"/>
<line x1="1058.0" y1="570.0" x2="267.0" y2="320.0" stroke="#3f3f46" stroke-width="1.1"/>
<line x1="1058.0" y1="570.0" x2="441.0" y2="121.4" stroke="#3f3f46" stroke-width="1.1"/>
<line x1="1058.0" y1="570.0" x2="446.9" y2="316.9" stroke="#3f3f46" stroke-width="1.1"/>
<line x1="1058.0" y1="570.0" x2="700.0" y2="728.0" stroke="#3f3f46" stroke-width="1.1"/>
<line x1="1058.0" y1="570.0" x2="836.8" y2="491.0" stroke="#3f3f46" stroke-width="1.1"/>
<line x1="1058.0" y1="570.0" x2="700.0" y2="910.0" stroke="#3f3f46" stroke-width="1.1"/>
<line x1="700.0" y1="910.0" x2="578.8" y2="640.0" stroke="#3f3f46" stroke-width="1.1"/>
<line x1="700.0" y1="910.0" x2="821.2" y2="640.0" stroke="#3f3f46" stroke-width="1.1"/>
<line x1="700.0" y1="910.0" x2="1058.0" y2="570.0" stroke="#3f3f46" stroke-width="1.1"/>
<line x1="700.0" y1="910.0" x2="836.8" y2="491.0" stroke="#3f3f46" stroke-width="1.1"/>
<line x1="700.0" y1="910.0" x2="645.9" y2="824.3" stroke="#3f3f46" stroke-width="1.1"/>
<line x1="1133.0" y1="820.0" x2="813.1" y2="316.0" stroke="#3f3f46" stroke-width="1.1"/>
<line x1="1133.0" y1="320.0" x2="821.2" y2="640.0" stroke="#3f3f46" stroke-width="1.1"/>
<line x1="267.0" y1="820.0" x2="893.2" y2="396.0" stroke="#3f3f46" stroke-width="1.1"/>
<line x1="267.0" y1="820.0" x2="757.8" y2="841.9" stroke="#3f3f46" stroke-width="1.1"/>
<line x1="267.0" y1="820.0" x2="301.6" y2="388.0" stroke="#3f3f46" stroke-width="1.1"/>
<line x1="1148.6" y1="829.0" x2="452.7" y2="489.7" stroke="#3f3f46" stroke-width="1.1"/>
<line x1="1148.6" y1="829.0" x2="581.7" y2="973.0" stroke="#3f3f46" stroke-width="1.1"/>
<line x1="700.0" y1="70.0" x2="821.2" y2="640.0" stroke="#3f3f46" stroke-width="1.1"/>
<line x1="700.0" y1="70.0" x2="536.6" y2="794.9" stroke="#3f3f46" stroke-width="1.1"/>
<line x1="700.0" y1="70.0" x2="284.3" y2="629.8" stroke="#3f3f46" stroke-width="1.1"/>
<line x1="700.0" y1="70.0" x2="1082.0" y2="395.5" stroke="#3f3f46" stroke-width="1.1"/>
<line x1="1082.0" y1="395.5" x2="1133.0" y2="320.0" stroke="#3f3f46" stroke-width="1.1"/>
<line x1="1082.0" y1="395.5" x2="821.2" y2="640.0" stroke="#3f3f46" stroke-width="1.1"/>
<line x1="1082.0" y1="395.5" x2="536.6" y2="794.9" stroke="#3f3f46" stroke-width="1.1"/>
<line x1="1082.0" y1="395.5" x2="700.0" y2="70.0" stroke="#3f3f46" stroke-width="1.1"/>
<line x1="581.7" y1="973.0" x2="700.0" y2="70.0" stroke="#3f3f46" stroke-width="1.1"/>
<line x1="581.7" y1="973.0" x2="452.7" y2="489.7" stroke="#3f3f46" stroke-width="1.1"/>
<line x1="581.7" y1="973.0" x2="1148.6" y2="829.0" stroke="#3f3f46" stroke-width="1.1"/>
<line x1="369.0" y1="856.8" x2="1133.0" y2="820.0" stroke="#3f3f46" stroke-width="1.1"/>
<line x1="369.0" y1="856.8" x2="813.1" y2="316.0" stroke="#3f3f46" stroke-width="1.1"/>
<line x1="284.3" y1="629.8" x2="959.0" y2="1018.6" stroke="#3f3f46" stroke-width="1.1"/>
<line x1="284.3" y1="629.8" x2="536.6" y2="794.9" stroke="#3f3f46" stroke-width="1.1"/>
<line x1="284.3" y1="629.8" x2="493.4" y2="384.0" stroke="#3f3f46" stroke-width="1.1"/>
<line x1="284.3" y1="629.8" x2="700.0" y2="70.0" stroke="#3f3f46" stroke-width="1.1"/>
<line x1="823.4" y1="990.3" x2="1218.0" y2="570.0" stroke="#3f3f46" stroke-width="1.1"/>
<line x1="823.4" y1="990.3" x2="940.8" y2="709.0" stroke="#3f3f46" stroke-width="1.1"/>
<line x1="823.4" y1="990.3" x2="821.2" y2="640.0" stroke="#3f3f46" stroke-width="1.1"/>
<line x1="936.8" y1="201.5" x2="959.0" y2="121.4" stroke="#3f3f46" stroke-width="1.1"/>
<line x1="936.8" y1="201.5" x2="645.9" y2="824.3" stroke="#3f3f46" stroke-width="1.1"/>
<line x1="936.8" y1="201.5" x2="964.4" y2="484.1" stroke="#3f3f46" stroke-width="1.1"/>
<line x1="301.6" y1="388.0" x2="441.0" y2="1018.6" stroke="#3f3f46" stroke-width="1.1"/>
<line x1="301.6" y1="388.0" x2="893.2" y2="396.0" stroke="#3f3f46" stroke-width="1.1"/>
<line x1="301.6" y1="388.0" x2="757.8" y2="841.9" stroke="#3f3f46" stroke-width="1.1"/>
<line x1="301.6" y1="388.0" x2="267.0" y2="820.0" stroke="#3f3f46" stroke-width="1.1"/>
<line x1="700.0" y1="150.0" x2="700.0" y2="1070.0" stroke="#3f3f46" stroke-width="1.1"/>
<line x1="700.0" y1="150.0" x2="423.5" y2="599.1" stroke="#3f3f46" stroke-width="1.1"/>
<line x1="700.0" y1="150.0" x2="474.8" y2="700.0" stroke="#3f3f46" stroke-width="1.1"/>
<line x1="700.0" y1="150.0" x2="594.2" y2="332.5" stroke="#3f3f46" stroke-width="1.1"/>
<line x1="472.9" y1="216.7" x2="267.0" y2="820.0" stroke="#3f3f46" stroke-width="1.1"/>
<line x1="472.9" y1="216.7" x2="821.2" y2="640.0" stroke="#3f3f46" stroke-width="1.1"/>
<line x1="472.9" y1="216.7" x2="594.2" y2="332.5" stroke="#3f3f46" stroke-width="1.1"/>
<line x1="1017.4" y1="845.0" x2="821.2" y2="640.0" stroke="#3f3f46" stroke-width="1.1"/>
<line x1="1017.4" y1="845.0" x2="958.6" y2="597.2" stroke="#3f3f46" stroke-width="1.1"/>
<line x1="1133.5" y1="632.3" x2="700.0" y2="310.0" stroke="#3f3f46" stroke-width="1.1"/>
<line x1="1133.5" y1="632.3" x2="594.2" y2="332.5" stroke="#3f3f46" stroke-width="1.1"/>
<line x1="1133.5" y1="632.3" x2="964.4" y2="484.1" stroke="#3f3f46" stroke-width="1.1"/>
<line x1="1133.5" y1="632.3" x2="493.4" y2="384.0" stroke="#3f3f46" stroke-width="1.1"/>
<line x1="1133.5" y1="632.3" x2="536.6" y2="794.9" stroke="#3f3f46" stroke-width="1.1"/>
<line x1="1133.5" y1="632.3" x2="452.7" y2="489.7" stroke="#3f3f46" stroke-width="1.1"/>
<line x1="1133.5" y1="632.3" x2="645.9" y2="824.3" stroke="#3f3f46" stroke-width="1.1"/>
<line x1="1133.5" y1="632.3" x2="821.2" y2="640.0" stroke="#3f3f46" stroke-width="1.1"/>
<circle cx="342.0" cy="570.0" r="6" fill="#14b8a6"/>
<text x="352.0" y="574.0" fill="#d6d3d1" font-family="ui-sans-serif,system-ui,sans-serif" font-size="11">maps</text>
<circle cx="267.0" cy="320.0" r="6" fill="#94a3b8"/>
<text x="277.0" y="324.0" fill="#d6d3d1" font-family="ui-sans-serif,system-ui,sans-serif" font-size="11">decisions</text>
<circle cx="441.0" cy="121.4" r="6" fill="#94a3b8"/>
<text x="451.0" y="125.4" fill="#d6d3d1" font-family="ui-sans-serif,system-ui,sans-serif" font-size="11">wiki</text>
<circle cx="700.0" cy="570.0" r="9" fill="#d4af37"/>
<text x="710.0" y="574.0" fill="#d6d3d1" font-family="ui-sans-serif,system-ui,sans-serif" font-size="11">Home</text>
<circle cx="182.0" cy="570.0" r="6" fill="#94a3b8"/>
<text x="192.0" y="574.0" fill="#d6d3d1" font-family="ui-sans-serif,system-ui,sans-serif" font-size="11">MEMORY</text>
<circle cx="446.9" cy="316.9" r="6" fill="#eb6b54"/>
<text x="456.9" y="320.9" fill="#d6d3d1" font-family="ui-sans-serif,system-ui,sans-serif" font-size="11">ship</text>
<circle cx="1009.7" cy="879.7" r="6" fill="#3b82f6"/>
<text x="1019.7" y="883.7" fill="#d6d3d1" font-family="ui-sans-serif,system-ui,sans-serif" font-size="11">hunt</text>
<circle cx="700.0" cy="230.0" r="6" fill="#eb6b54"/>
<text x="710.0" y="234.0" fill="#d6d3d1" font-family="ui-sans-serif,system-ui,sans-serif" font-size="11">angles</text>
<circle cx="953.1" cy="823.1" r="6" fill="#eb6b54"/>
<text x="963.1" y="827.1" fill="#d6d3d1" font-family="ui-sans-serif,system-ui,sans-serif" font-size="11">drafts</text>
<circle cx="1040.0" cy="570.0" r="6" fill="#eb6b54"/>
<text x="1050.0" y="574.0" fill="#d6d3d1" font-family="ui-sans-serif,system-ui,sans-serif" font-size="11">digests</text>
<circle cx="953.1" cy="316.9" r="6" fill="#eb6b54"/>
<text x="963.1" y="320.9" fill="#d6d3d1" font-family="ui-sans-serif,system-ui,sans-serif" font-size="11">builds</text>
<circle cx="700.0" cy="990.0" r="6" fill="#3b82f6"/>
<text x="710.0" y="994.0" fill="#d6d3d1" font-family="ui-sans-serif,system-ui,sans-serif" font-size="11">inbox</text>
<circle cx="280.0" cy="570.0" r="6" fill="#3b82f6"/>
<text x="290.0" y="574.0" fill="#d6d3d1" font-family="ui-sans-serif,system-ui,sans-serif" font-size="11">reddit</text>
<circle cx="390.3" cy="879.7" r="6" fill="#3b82f6"/>
<text x="400.3" y="883.7" fill="#d6d3d1" font-family="ui-sans-serif,system-ui,sans-serif" font-size="11">product-hunt</text>
<circle cx="1009.7" cy="260.3" r="6" fill="#3b82f6"/>
<text x="1019.7" y="264.3" fill="#d6d3d1" font-family="ui-sans-serif,system-ui,sans-serif" font-size="11">github</text>
<circle cx="390.3" cy="260.3" r="6" fill="#3b82f6"/>
<text x="400.3" y="264.3" fill="#d6d3d1" font-family="ui-sans-serif,system-ui,sans-serif" font-size="11">twitter</text>
<circle cx="1120.0" cy="570.0" r="6" fill="#3b82f6"/>
<text x="1130.0" y="574.0" fill="#d6d3d1" font-family="ui-sans-serif,system-ui,sans-serif" font-size="11">hacker-news</text>
<circle cx="700.0" cy="150.0" r="6" fill="#3b82f6"/>
<text x="710.0" y="154.0" fill="#d6d3d1" font-family="ui-sans-serif,system-ui,sans-serif" font-size="11">disclosures</text>
<circle cx="700.0" cy="910.0" r="6" fill="#eb6b54"/>
<text x="710.0" y="914.0" fill="#d6d3d1" font-family="ui-sans-serif,system-ui,sans-serif" font-size="11">ingest-brief-2026-08-23</text>
<circle cx="360.0" cy="570.0" r="6" fill="#eb6b54"/>
<text x="370.0" y="574.0" fill="#d6d3d1" font-family="ui-sans-serif,system-ui,sans-serif" font-size="11">ingest-brief-2026-08-24-disclosure-index</text>
<circle cx="446.9" cy="823.1" r="6" fill="#eb6b54"/>
<text x="456.9" y="827.1" fill="#d6d3d1" font-family="ui-sans-serif,system-ui,sans-serif" font-size="11">ingest-brief-2026-08-24</text>
<circle cx="474.8" cy="700.0" r="6" fill="#d4af37"/>
<text x="484.8" y="704.0" fill="#d6d3d1" font-family="ui-sans-serif,system-ui,sans-serif" font-size="11">memory-ablation</text>
<circle cx="700.0" cy="728.0" r="9" fill="#d4af37"/>
<text x="710.0" y="732.0" fill="#d6d3d1" font-family="ui-sans-serif,system-ui,sans-serif" font-size="11">how-it-works</text>
<circle cx="452.7" cy="489.7" r="6" fill="#d4af37"/>
<text x="462.7" y="493.7" fill="#d6d3d1" font-family="ui-sans-serif,system-ui,sans-serif" font-size="11">self-verification</text>
<circle cx="852.8" cy="780.3" r="6" fill="#d4af37"/>
<text x="862.8" y="784.3" fill="#d6d3d1" font-family="ui-sans-serif,system-ui,sans-serif" font-size="11">graph</text>
<circle cx="757.8" cy="841.9" r="6" fill="#d4af37"/>
<text x="767.8" y="845.9" fill="#d6d3d1" font-family="ui-sans-serif,system-ui,sans-serif" font-size="11">harness-routing</text>
<circle cx="563.2" cy="491.0" r="9" fill="#d4af37"/>
<text x="573.2" y="495.0" fill="#d6d3d1" font-family="ui-sans-serif,system-ui,sans-serif" font-size="11">log</text>
<circle cx="423.5" cy="599.1" r="6" fill="#d4af37"/>
<text x="433.5" y="603.1" fill="#d6d3d1" font-family="ui-sans-serif,system-ui,sans-serif" font-size="11">memory-engineering</text>
<circle cx="645.9" cy="824.3" r="6" fill="#d4af37"/>
<text x="655.9" y="828.3" fill="#d6d3d1" font-family="ui-sans-serif,system-ui,sans-serif" font-size="11">hunt-ship-loop</text>
<circle cx="536.6" cy="794.9" r="6" fill="#d4af37"/>
<text x="546.6" y="798.9" fill="#d6d3d1" font-family="ui-sans-serif,system-ui,sans-serif" font-size="11">llm-wiki</text>
<circle cx="493.4" cy="384.0" r="6" fill="#d4af37"/>
<text x="503.4" y="388.0" fill="#d6d3d1" font-family="ui-sans-serif,system-ui,sans-serif" font-size="11">tokens-as-capital</text>
<circle cx="578.8" cy="640.0" r="9" fill="#d4af37"/>
<text x="588.8" y="644.0" fill="#d6d3d1" font-family="ui-sans-serif,system-ui,sans-serif" font-size="11">index</text>
<circle cx="893.2" cy="396.0" r="6" fill="#d4af37"/>
<text x="903.2" y="400.0" fill="#d6d3d1" font-family="ui-sans-serif,system-ui,sans-serif" font-size="11">audited-task-contract</text>
<circle cx="813.1" cy="316.0" r="6" fill="#d4af37"/>
<text x="823.1" y="320.0" fill="#d6d3d1" font-family="ui-sans-serif,system-ui,sans-serif" font-size="11">anti-slop</text>
<circle cx="940.8" cy="709.0" r="6" fill="#d4af37"/>
<text x="950.8" y="713.0" fill="#d6d3d1" font-family="ui-sans-serif,system-ui,sans-serif" font-size="11">entropy-gate</text>
<circle cx="964.4" cy="484.1" r="6" fill="#d4af37"/>
<text x="974.4" y="488.1" fill="#d6d3d1" font-family="ui-sans-serif,system-ui,sans-serif" font-size="11">context-graph</text>
<circle cx="594.2" cy="332.5" r="6" fill="#d4af37"/>
<text x="604.2" y="336.5" fill="#d6d3d1" font-family="ui-sans-serif,system-ui,sans-serif" font-size="11">verifiable-instructions</text>
<circle cx="836.8" cy="491.0" r="9" fill="#d4af37"/>
<text x="846.8" y="495.0" fill="#d6d3d1" font-family="ui-sans-serif,system-ui,sans-serif" font-size="11">agent-operating-system</text>
<circle cx="700.0" cy="430.0" r="9" fill="#d4af37"/>
<text x="710.0" y="434.0" fill="#d6d3d1" font-family="ui-sans-serif,system-ui,sans-serif" font-size="11">Today</text>
<circle cx="821.2" cy="640.0" r="9" fill="#d4af37"/>
<text x="831.2" y="644.0" fill="#d6d3d1" font-family="ui-sans-serif,system-ui,sans-serif" font-size="11">contradictions</text>
<circle cx="700.0" cy="310.0" r="6" fill="#d4af37"/>
<text x="710.0" y="314.0" fill="#d6d3d1" font-family="ui-sans-serif,system-ui,sans-serif" font-size="11">agent-facing-docs</text>
<circle cx="958.6" cy="597.2" r="6" fill="#d4af37"/>
<text x="968.6" y="601.2" fill="#d6d3d1" font-family="ui-sans-serif,system-ui,sans-serif" font-size="11">disclosure-index</text>
<circle cx="700.0" cy="230.0" r="6" fill="#14b8a6"/>
<text x="710.0" y="234.0" fill="#d6d3d1" font-family="ui-sans-serif,system-ui,sans-serif" font-size="11">Hooks</text>
<circle cx="1058.0" cy="570.0" r="6" fill="#14b8a6"/>
<text x="1068.0" y="574.0" fill="#d6d3d1" font-family="ui-sans-serif,system-ui,sans-serif" font-size="11">Jarvis</text>
<circle cx="700.0" cy="910.0" r="6" fill="#14b8a6"/>
<text x="710.0" y="914.0" fill="#d6d3d1" font-family="ui-sans-serif,system-ui,sans-serif" font-size="11">TELOS</text>
<circle cx="959.0" cy="1018.6" r="6" fill="#94a3b8"/>
<text x="969.0" y="1022.6" fill="#d6d3d1" font-family="ui-sans-serif,system-ui,sans-serif" font-size="11">2026-08-21-papa-couch-compiler</text>
<circle cx="700.0" cy="70.0" r="6" fill="#94a3b8"/>
<text x="710.0" y="74.0" fill="#d6d3d1" font-family="ui-sans-serif,system-ui,sans-serif" font-size="11">2026-08-17-jacky-self-verification</text>
<circle cx="1218.0" cy="570.0" r="6" fill="#94a3b8"/>
<text x="1228.0" y="574.0" fill="#d6d3d1" font-family="ui-sans-serif,system-ui,sans-serif" font-size="11">2026-08-21-hitu-entropy-engineering</text>
<circle cx="1133.0" cy="820.0" r="6" fill="#94a3b8"/>
<text x="1143.0" y="824.0" fill="#d6d3d1" font-family="ui-sans-serif,system-ui,sans-serif" font-size="11">2026-08-21-juampi-anti-slop-rank</text>
<circle cx="1133.0" cy="320.0" r="6" fill="#94a3b8"/>
<text x="1143.0" y="324.0" fill="#d6d3d1" font-family="ui-sans-serif,system-ui,sans-serif" font-size="11">2026-08-21-bober-folder-workflow</text>
<circle cx="959.0" cy="121.4" r="6" fill="#94a3b8"/>
<text x="969.0" y="125.4" fill="#d6d3d1" font-family="ui-sans-serif,system-ui,sans-serif" font-size="11">2026-08-20-avid-obsidian-agent-team</text>
<circle cx="700.0" cy="1070.0" r="6" fill="#94a3b8"/>
<text x="710.0" y="1074.0" fill="#d6d3d1" font-family="ui-sans-serif,system-ui,sans-serif" font-size="11">2026-08-22-0xcodio-memory-ablation</text>
<circle cx="441.0" cy="1018.6" r="6" fill="#94a3b8"/>
<text x="451.0" y="1022.6" fill="#d6d3d1" font-family="ui-sans-serif,system-ui,sans-serif" font-size="11">2026-08-22-rohit-harness-router</text>
<circle cx="267.0" cy="820.0" r="6" fill="#94a3b8"/>
<text x="277.0" y="824.0" fill="#d6d3d1" font-family="ui-sans-serif,system-ui,sans-serif" font-size="11">2026-08-22-voxyz-verifiable-instructions</text>
<circle cx="267.0" cy="820.0" r="6" fill="#22c55e"/>
<text x="277.0" y="824.0" fill="#d6d3d1" font-family="ui-sans-serif,system-ui,sans-serif" font-size="11">rohit</text>
<circle cx="1148.6" cy="829.0" r="6" fill="#22c55e"/>
<text x="1158.6" y="833.0" fill="#d6d3d1" font-family="ui-sans-serif,system-ui,sans-serif" font-size="11">jacky-kwok</text>
<circle cx="700.0" cy="70.0" r="6" fill="#22c55e"/>
<text x="710.0" y="74.0" fill="#d6d3d1" font-family="ui-sans-serif,system-ui,sans-serif" font-size="11">andrej-karpathy</text>
<circle cx="1082.0" cy="395.5" r="6" fill="#3b82f6"/>
<text x="1092.0" y="399.5" fill="#d6d3d1" font-family="ui-sans-serif,system-ui,sans-serif" font-size="11">src-bober-folder-workflow</text>
<circle cx="581.7" cy="973.0" r="6" fill="#3b82f6"/>
<text x="591.7" y="977.0" fill="#d6d3d1" font-family="ui-sans-serif,system-ui,sans-serif" font-size="11">src-jacky-self-verification</text>
<circle cx="369.0" cy="856.8" r="6" fill="#3b82f6"/>
<text x="379.0" y="860.8" fill="#d6d3d1" font-family="ui-sans-serif,system-ui,sans-serif" font-size="11">src-juampi-anti-slop-rank</text>
<circle cx="284.3" cy="629.8" r="6" fill="#3b82f6"/>
<text x="294.3" y="633.8" fill="#d6d3d1" font-family="ui-sans-serif,system-ui,sans-serif" font-size="11">src-papa-couch-compiler</text>
<circle cx="823.4" cy="990.3" r="6" fill="#3b82f6"/>
<text x="833.4" y="994.3" fill="#d6d3d1" font-family="ui-sans-serif,system-ui,sans-serif" font-size="11">src-hitu-entropy-engineering</text>
<circle cx="936.8" cy="201.5" r="6" fill="#3b82f6"/>
<text x="946.8" y="205.5" fill="#d6d3d1" font-family="ui-sans-serif,system-ui,sans-serif" font-size="11">src-avid-obsidian-agent-team</text>
<circle cx="301.6" cy="388.0" r="6" fill="#3b82f6"/>
<text x="311.6" y="392.0" fill="#d6d3d1" font-family="ui-sans-serif,system-ui,sans-serif" font-size="11">src-rohit-harness-router</text>
<circle cx="700.0" cy="150.0" r="6" fill="#3b82f6"/>
<text x="710.0" y="154.0" fill="#d6d3d1" font-family="ui-sans-serif,system-ui,sans-serif" font-size="11">src-0xcodio-memory-ablation</text>
<circle cx="472.9" cy="216.7" r="6" fill="#3b82f6"/>
<text x="482.9" y="220.7" fill="#d6d3d1" font-family="ui-sans-serif,system-ui,sans-serif" font-size="11">src-voxyz-verifiable-instructions</text>
<circle cx="1017.4" cy="845.0" r="6" fill="#3b82f6"/>
<text x="1027.4" y="849.0" fill="#d6d3d1" font-family="ui-sans-serif,system-ui,sans-serif" font-size="11">src-disclosure-index</text>
<circle cx="1133.5" cy="632.3" r="6" fill="#3b82f6"/>
<text x="1143.5" y="636.3" fill="#d6d3d1" font-family="ui-sans-serif,system-ui,sans-serif" font-size="11">src-dair-agent-friendly-docs</text>
</svg>